<?xml version="1.0" encoding="UTF-8"?>
<svg xmlns="http://www.w3.org/2000/svg" xmlns:xlink="http://www.w3.org/1999/xlink" viewBox="0 0 1038 1038">
  <defs>
    <style>
      .cls-1 {
        fill: url(#Gradiente_sem_nome_22);
      }

      .cls-2 {
        fill: url(#Gradiente_sem_nome_55);
      }

      .cls-3 {
        fill: url(#Gradiente_sem_nome_50);
      }

      .cls-4 {
        fill: url(#Gradiente_sem_nome_50-2);
      }
    </style>
    <radialGradient id="Gradiente_sem_nome_55" data-name="Gradiente sem nome 55" cx="519.02" cy="497.53" fx="519.02" fy="497.53" r="396.09" gradientUnits="userSpaceOnUse">
      <stop offset=".56" stop-color="#f9c533"/>
      <stop offset=".88" stop-color="#fea23b"/>
    </radialGradient>
    <linearGradient id="Gradiente_sem_nome_22" data-name="Gradiente sem nome 22" x1="723.26" y1="865.64" x2="723.26" y2="628.68" gradientUnits="userSpaceOnUse">
      <stop offset="0" stop-color="#4b9250"/>
      <stop offset=".21" stop-color="#65a34e"/>
      <stop offset=".32" stop-color="#74ad4e"/>
      <stop offset=".67" stop-color="#9ac24a"/>
      <stop offset="1" stop-color="#c4da47"/>
    </linearGradient>
    <linearGradient id="Gradiente_sem_nome_50" data-name="Gradiente sem nome 50" x1="168" y1="710" x2="168" y2="710" gradientUnits="userSpaceOnUse">
      <stop offset="0" stop-color="#4b9250"/>
      <stop offset=".28" stop-color="#65a34e"/>
      <stop offset=".42" stop-color="#74ad4e"/>
      <stop offset=".71" stop-color="#9ac24a"/>
      <stop offset="1" stop-color="#c4da47"/>
    </linearGradient>
    <linearGradient id="Gradiente_sem_nome_50-2" data-name="Gradiente sem nome 50" x1="403.34" y1="902.26" x2="222.3" y2="516.95" xlink:href="#Gradiente_sem_nome_50"/>
  </defs>
  <g id="Camada_2" data-name="Camada 2">
    <path class="cls-2" d="m159,595c4.21-1.86,34.93-15.28,64-22,63.21-14.61,122.44,1.57,138,6,27.02,7.69,48.33,17.89,63,26,12.52,6.03,28.16,15.18,44,29,9.85,8.59,17.75,17.22,24,25,3.39-5.1,8.45-12.45,15-21,13.35-17.42,36.84-47.62,75-74,32.06-22.17,60.69-32.12,78-38,15.1-5.13,42.35-13.23,90-18,39.15-3.92,96.02-5.99,166,4,.05-2.4.08-5.08.05-8-1.5-151.48-144.15-396.94-397.02-397-244.89-.06-394.23,230.08-397.02,397-.65,38.96,6.71,73.16,15.98,101,4.97-2.55,12.17-6.11,21-10Z"/>
  </g>
  <g id="Camada_9" data-name="Camada 9">
    <g>
      <path d="m280.62,889.65c1.2-1.95,2.87-3.19,5.01-3.71,2.14-.52,4.19-.18,6.14,1.01,1.95,1.19,3.18,2.86,3.69,5.01.51,2.15.17,4.19-1.03,6.15-1.2,1.95-2.87,3.19-5.01,3.71-2.14.52-4.19.18-6.14-1.01-1.95-1.19-3.18-2.86-3.69-5.01-.51-2.15-.17-4.2,1.03-6.15Z"/>
      <path d="m257.1,863.96c2.48,1.84,3.46,4.71,2.95,8.61-.51,3.89-2.65,8.37-6.41,13.43-1.5,2.01-3.13,3.84-4.9,5.47-1.76,1.63-3.57,2.95-5.41,3.94-1.84.99-3.63,1.54-5.37,1.64s-3.32-.38-4.76-1.45c-1.01-.75-1.66-1.74-1.96-2.97-.29-1.23-.31-2.48-.04-3.77.27-1.29.74-2.39,1.42-3.3.67-.9,1.41-1.51,2.21-1.85.81-.34,1.61-.21,2.4.38.88.66,1.32,1.36,1.32,2.11,0,.75-.3,1.53-.89,2.32-.42.56-.88.93-1.4,1.1s-1.03.34-1.53.49c-.5.15-.93.46-1.28.94-.35.47-.51.86-.48,1.17.03.31.2.58.51.81.51.38,1.19.4,2.03.05.84-.35,1.77-.95,2.8-1.81s2.08-1.86,3.16-3c1.08-1.14,2.12-2.32,3.13-3.54s1.91-2.35,2.69-3.41c1.18-1.59,2.26-3.13,3.25-4.61s1.83-2.88,2.55-4.17c.72-1.29,1.28-2.45,1.67-3.49.39-1.03.61-1.9.64-2.61s-.15-1.21-.54-1.5c-.54-.4-1.09-.59-1.64-.55s-1.13.24-1.74.61-1.24.85-1.9,1.43l-.77-1.95c.93-.63,1.85-1.12,2.77-1.45.92-.33,1.84-.44,2.75-.32s1.84.53,2.78,1.23Z"/>
      <path d="m249.17,858.68l-1.36,1.66-2.03-1.67-21.69,26.46,2.03,1.67-1.36,1.66-13.65-11.19,6.08-7.42,1.65,1.36c-.94,1.15-1.65,2.25-2.14,3.32-.48,1.06-.67,2.03-.58,2.91s.54,1.64,1.33,2.29l.87.71,10.17-12.4-3.28-2.69-1.6,1.96-1.63-1.34,4.5-5.49,1.63,1.34-1.53,1.87,3.28,2.69,10.17-12.4-.87-.71c-.79-.65-1.63-.93-2.52-.84-.89.09-1.81.48-2.76,1.17-.95.69-1.9,1.61-2.84,2.75l-1.65-1.36,6.14-7.49,13.65,11.19Z"/>
      <path d="m233.41,845.75l-1.44,1.59-1.89-1.71-22.98,25.34,1.89,1.71-1.44,1.59-7.98-7.23,9.49-20.54.28.26-13.06,14.4,1.79,1.62-1.44,1.59-5.22-4.73,1.44-1.59,1.81,1.64,24.42-26.93,3.27,2.96-15.08,32.54-.34-.31,21.56-23.77-1.83-1.66,1.44-1.59,5.32,4.82Z"/>
      <path d="m213.6,827.47l-1.52,1.51-2.28-2.29-24.26,24.12.31.31c.84.84,1.65,1.29,2.45,1.35.79.06,1.65-.22,2.57-.85.92-.63,1.99-1.55,3.23-2.78l1.51,1.52-6.81,6.77-14.72-14.81,6.81-6.77,1.49,1.5c-1.23,1.23-2.17,2.3-2.8,3.21-.63.91-.92,1.77-.87,2.56s.5,1.61,1.34,2.46l.31.31,24.26-24.12-2.36-2.37,1.52-1.51,9.83,9.89Z"/>
      <path d="m186.81,798.2c1.21,1.37,1.8,2.63,1.75,3.79-.04,1.16-.53,2.31-1.45,3.44-.92,1.13-2.08,2.31-3.48,3.55-.71.63-1.4,1.23-2.07,1.79-.67.56-1.2,1.01-1.6,1.37-1,.89-1.7,1.63-2.09,2.22-.39.59-.54,1.14-.44,1.64.1.5.4,1.03.9,1.59l.71.8,12.39-11.02-1.89-2.13,1.6-1.43,8.72,9.81-1.6,1.43-1.98-2.23-25.56,22.73,1.99,2.23-1.6,1.43-8.67-9.75c-1.09-1.23-1.86-2.55-2.29-3.96-.43-1.41-.43-2.85.02-4.32.45-1.47,1.46-2.91,3.03-4.31,1.16-1.04,2.35-1.76,3.55-2.17,1.21-.41,2.37-.58,3.48-.49,1.12.08,2.15.32,3.09.72.94.4,1.75.88,2.43,1.45-1.29-1.59-2.09-3-2.39-4.24s-.13-2.44.52-3.62c.65-1.17,1.77-2.47,3.36-3.88.74-.66,1.49-1.28,2.25-1.87s1.44-1.16,2.05-1.69c.36-.32.71-.66,1.06-1.02.35-.36.62-.71.79-1.03.18-.33.19-.57.04-.74-.16-.18-.34-.24-.55-.19-.21.05-.41.15-.6.3l-1.31-1.47c.69-.47,1.36-.72,2-.77.65-.05,1.29.1,1.93.45.64.35,1.28.88,1.92,1.61Zm-9.37,21.61l-.78-.88c-.45-.5-1.11-.67-1.97-.5s-1.86.61-3,1.31c-1.13.7-2.29,1.57-3.46,2.62-1.12,1-1.99,1.92-2.61,2.78-.62.85-.97,1.62-1.06,2.3s.08,1.27.52,1.76l.8.9,11.57-10.29Z"/>
      <path d="m183.39,794.99l-1.67,1.34-1.39-1.73-31.61,18.69-2.53-3.17,24.48-27.59-1.61-2.01,1.67-1.34,7.84,9.8-1.67,1.34-1.25-1.56-13.86,14.6-.03-.04,17.16-10.47-1.13-1.41,1.67-1.34,3.92,4.9Zm-8,.96l-1.55,1.24-3.58-4.47,1.55-1.24,3.58,4.47Z"/>
      <path d="m170.64,778.98l-1.73,1.27-1.46-1.99-27.6,20.21,1.46,1.99-1.73,1.27-7.3-9.97,1.73-1.27,1.51,2.06,27.6-20.21-.6-.82c-.45-.62-1.1-.95-1.94-.99s-1.8.16-2.88.61c-1.08.45-2.2,1.1-3.37,1.96l-1.26-1.72,7.81-5.72,9.76,13.33Z"/>
      <path d="m153.51,754.9l-1.81,1.14-1.4-2.22-28.93,18.25,1.4,2.22-1.81,1.14-9.42-14.92,8.12-5.12,1.14,1.81c-1.26.79-2.28,1.62-3.07,2.47-.79.86-1.28,1.71-1.46,2.58-.18.86,0,1.72.54,2.59l.6.95,13.56-8.56-2.27-3.59-2.14,1.35-1.13-1.78,6-3.79,1.13,1.78-2.05,1.29,2.27,3.59,13.56-8.56-.6-.95c-.55-.86-1.25-1.4-2.13-1.59s-1.87-.12-2.99.23-2.31.92-3.57,1.72l-1.14-1.81,8.19-5.17,9.42,14.92Z"/>
      <path d="m138.72,729.18c.52.92.84,1.71.94,2.37.1.66.1,1.22,0,1.68s-.19.85-.28,1.17c-.09.32-.07.59.06.83.26.46.86.42,1.8-.11l1.02,1.79-8.49,4.83-1.06-1.86c.31-.2.71-.53,1.2-1.01.49-.48.99-1.05,1.49-1.72.51-.67.94-1.39,1.3-2.16.36-.77.58-1.56.64-2.35s-.11-1.56-.54-2.31c-.34-.6-.73-1.02-1.17-1.24s-.93-.29-1.5-.19-1.21.35-1.92.76c-.92.53-1.74,1.27-2.44,2.22-.7.96-1.37,2.11-2.01,3.48-.64,1.36-1.31,2.93-2.01,4.69-.88,2.16-1.8,3.97-2.76,5.41-.96,1.45-1.97,2.65-3.05,3.59-1.08.95-2.23,1.77-3.45,2.47-1.82,1.03-3.51,1.59-5.08,1.66s-2.95-.2-4.13-.83-2.09-1.5-2.72-2.61c-.56-.98-.83-1.82-.82-2.5.01-.68.09-1.25.24-1.71.15-.46.14-.84-.02-1.12-.12-.21-.29-.32-.53-.33s-.63.12-1.16.41l-1.02-1.79,8.44-4.8,1.04,1.83c-.46.3-1.02.78-1.67,1.42-.66.65-1.27,1.39-1.85,2.23s-.97,1.71-1.17,2.61c-.21.9-.08,1.75.38,2.56.46.81,1.1,1.26,1.93,1.36.83.1,1.76-.15,2.82-.75.78-.44,1.53-1.15,2.23-2.11.71-.96,1.38-2.14,2.02-3.54.64-1.4,1.27-2.98,1.9-4.72.62-1.88,1.33-3.52,2.13-4.9.81-1.38,1.75-2.6,2.82-3.66,1.08-1.05,2.33-1.99,3.77-2.8,1.77-1.01,3.34-1.63,4.73-1.87,1.38-.24,2.58-.21,3.61.09,1.02.3,1.89.77,2.61,1.42.71.64,1.29,1.35,1.72,2.11Z"/>
      <path d="m131.44,717.54l-1.91.97-1.46-2.88-30.51,15.47.2.39c.54,1.06,1.17,1.74,1.91,2.04.74.3,1.64.29,2.7-.02s2.37-.87,3.93-1.65l.97,1.91-8.56,4.34-9.44-18.62,8.56-4.34.95,1.88c-1.55.79-2.77,1.52-3.65,2.19-.88.67-1.42,1.4-1.61,2.17-.19.77-.02,1.69.51,2.75l.2.39,30.51-15.47-1.51-2.98,1.91-.97,6.31,12.44Z"/>
      <path d="m124.44,703.79l-1.95.89-.92-2.02-35.23,10.35-1.68-3.69,30.51-20.73-1.07-2.34,1.95-.89,5.19,11.43-1.95.89-.83-1.82-17.02,10.74-.02-.05,19.21-5.93-.75-1.65,1.95-.89,2.6,5.71Zm-7.99-1.03l-1.8.82-2.37-5.21,1.8-.82,2.37,5.21Z"/>
      <path d="m116.06,685.41l-1.99.79-.96-2.42-31.79,12.62.96,2.42-1.99.79-4.17-10.49c-.67-1.7-.64-3.54.11-5.54s2.24-3.96,4.49-5.9c2.25-1.93,5.31-3.67,9.18-5.21,3.9-1.55,7.38-2.41,10.45-2.57s5.59.21,7.58,1.12,3.32,2.21,3.98,3.89l4.17,10.49Zm-5.7-8.56l-.31-.79c-.22-.56-1.04-.85-2.46-.87-1.42-.02-3.39.29-5.93.93-2.54.63-5.57,1.65-9.1,3.05-3.25,1.29-5.99,2.56-8.2,3.8-2.21,1.24-3.84,2.35-4.89,3.33s-1.47,1.73-1.26,2.26l.36.92,31.8-12.62Z"/>
      <path d="m104.26,652.04c.3.88.49,1.85.57,2.9s-.08,2.11-.48,3.17c-.4,1.06-1.15,2.06-2.24,2.99s-2.67,1.75-4.72,2.44l-25.45,8.54.87,2.6-2.03.68-4.23-12.6,2.03-.68.97,2.88,25.73-8.63c2.38-.8,4.03-1.62,4.96-2.47s1.21-1.79.86-2.83c-.13-.38-.34-.71-.64-1s-.72-.5-1.26-.63c-.54-.14-1.22-.15-2.04-.04-.82.11-1.83.37-3.03.77l-26.57,8.91.77,2.29-2.03.68-2.29-6.83,2.03-.68.83,2.47,26.75-8.97c2.12-.71,3.88-1,5.28-.86s2.52.63,3.37,1.49,1.51,2,1.99,3.44Z"/>
      <path d="m100.66,643.38l-2.06.59-.61-2.13-36.38,4.99-1.11-3.9,33.26-15.95-.7-2.48,2.06-.59,3.43,12.07-2.06.59-.55-1.92-18.43,8.09v-.05s19.86-3,19.86-3l-.49-1.74,2.06-.59,1.72,6.04Zm-7.75-2.21l-1.9.54-1.57-5.51,1.9-.54,1.57,5.51Z"/>
      <path d="m95.11,623.72l-2.09.5-.57-2.4-33.28,7.92.57,2.4-2.09.5-2.86-12.02,2.09-.5.59,2.48,33.28-7.92-.23-.99c-.18-.75-.64-1.3-1.4-1.67-.75-.36-1.72-.55-2.89-.55-1.17,0-2.46.16-3.87.5l-.49-2.08,9.42-2.24,3.83,16.07Z"/>
      <path d="m88.89,596.14l-2.12.35-.36-2.19-36.71.89-.67-4,34.83-12.14-.42-2.54,2.12-.35,2.06,12.38-2.12.35-.33-1.97-19.22,5.98v-.05s20.08-.76,20.08-.76l-.3-1.78,2.12-.35,1.03,6.19Zm-7.45-3.06l-1.95.33-.94-5.65,1.95-.33.94,5.65Z"/>
      <path d="m85.16,566.43c.13,1.05.11,1.9-.05,2.55-.16.65-.38,1.16-.64,1.55-.27.39-.5.71-.71.97-.21.25-.3.52-.26.79.06.53.63.72,1.71.59l.25,2.04-9.69,1.17-.26-2.12c.36-.06.86-.22,1.49-.47.63-.25,1.31-.59,2.04-1.01s1.4-.92,2.04-1.49,1.13-1.21,1.5-1.92.5-1.49.4-2.34c-.08-.69-.28-1.22-.59-1.6-.31-.38-.75-.63-1.31-.75-.56-.13-1.25-.14-2.07-.04-1.06.13-2.09.5-3.11,1.11s-2.08,1.42-3.2,2.43-2.34,2.19-3.67,3.55c-1.65,1.65-3.19,2.96-4.63,3.93-1.44.97-2.84,1.68-4.2,2.14-1.36.46-2.74.77-4.14.94-2.08.25-3.85.11-5.33-.43s-2.64-1.33-3.49-2.37-1.35-2.19-1.5-3.46c-.14-1.12-.07-2,.21-2.62s.57-1.12.89-1.49.45-.72.41-1.04c-.03-.24-.15-.41-.37-.51s-.62-.13-1.23-.07l-.25-2.04,9.64-1.17.25,2.09c-.54.1-1.24.33-2.09.67-.85.34-1.71.79-2.57,1.35s-1.55,1.21-2.09,1.95c-.54.75-.75,1.58-.64,2.51.11.92.53,1.59,1.25,2s1.69.54,2.89.4c.89-.11,1.85-.47,2.88-1.08,1.03-.61,2.1-1.44,3.23-2.49,1.13-1.05,2.32-2.25,3.58-3.62,1.3-1.5,2.58-2.73,3.86-3.7,1.28-.96,2.62-1.72,4.02-2.28,1.4-.56,2.92-.93,4.56-1.13,2.02-.25,3.71-.21,5.08.1,1.37.31,2.47.81,3.29,1.48s1.45,1.44,1.86,2.31c.41.87.67,1.74.77,2.61Z"/>
      <path d="m83.29,547.33c.08,1.06.03,1.9-.16,2.54-.19.64-.43,1.15-.71,1.53-.28.38-.54.69-.75.94-.22.25-.32.5-.3.78.04.53.6.75,1.68.67l.16,2.05-9.73.75-.16-2.13c.37-.05.87-.18,1.51-.4.65-.22,1.34-.53,2.08-.92.74-.39,1.44-.85,2.1-1.4s1.18-1.16,1.58-1.85c.4-.69.56-1.46.5-2.32-.05-.69-.23-1.23-.52-1.62-.3-.39-.72-.66-1.28-.81-.55-.15-1.24-.19-2.06-.13-1.06.08-2.11.4-3.15.97-1.04.57-2.14,1.33-3.3,2.29s-2.43,2.09-3.82,3.38c-1.72,1.58-3.32,2.82-4.8,3.72-1.48.9-2.92,1.55-4.29,1.95s-2.77.65-4.17.76c-2.08.16-3.85-.06-5.31-.67-1.45-.6-2.58-1.44-3.38-2.52-.8-1.07-1.25-2.25-1.35-3.52-.09-1.13.02-2,.32-2.61s.62-1.09.95-1.45c.33-.36.48-.7.46-1.02-.02-.24-.13-.41-.34-.52s-.62-.15-1.22-.13l-.16-2.05,9.68-.74.16,2.1c-.54.08-1.25.27-2.12.58-.87.3-1.74.72-2.62,1.23-.88.52-1.6,1.14-2.17,1.86-.57.72-.82,1.55-.75,2.48s.46,1.61,1.16,2.05,1.66.61,2.87.52c.9-.07,1.87-.39,2.92-.95,1.05-.57,2.16-1.35,3.34-2.34,1.17-1,2.42-2.15,3.73-3.46,1.36-1.44,2.7-2.62,4.02-3.52,1.32-.91,2.69-1.61,4.11-2.1s2.96-.8,4.6-.93c2.03-.16,3.72-.05,5.07.33s2.43.91,3.23,1.62,1.38,1.51,1.76,2.39c.37.89.59,1.77.66,2.64Z"/>
      <path d="m82.06,526.2c.05,1.97-.67,3.75-2.16,5.34-1.5,1.59-3.7,2.86-6.62,3.83s-6.49,1.51-10.72,1.63c-4.25.12-7.87-.22-10.85-1.03s-5.27-1.95-6.86-3.45-2.42-3.24-2.47-5.21c-.06-2.01.67-3.82,2.17-5.42,1.51-1.6,3.73-2.9,6.66-3.89,2.93-.99,6.53-1.54,10.78-1.66,4.23-.12,7.83.23,10.8,1.06,2.97.82,5.24,1.99,6.82,3.51,1.58,1.52,2.4,3.28,2.46,5.29Zm-2.14.06c-.01-.49-.4-.89-1.15-1.19-.75-.3-1.88-.53-3.38-.69-1.5-.16-3.35-.25-5.55-.27s-4.75,0-7.65.09-5.45.19-7.65.34-4.06.34-5.55.58c-1.5.24-2.62.54-3.37.88-.75.34-1.12.76-1.11,1.25.01.48.41.86,1.17,1.15.77.29,1.91.5,3.42.63,1.51.13,3.37.21,5.58.23s4.76,0,7.66-.09,5.44-.19,7.64-.34c2.2-.14,4.04-.32,5.53-.54,1.49-.21,2.6-.49,3.33-.82.73-.33,1.09-.73,1.08-1.21Z"/>
      <path d="m81.98,502.32c-.07,3.09-1.83,5.55-5.3,7.39-3.47,1.84-8.36,2.7-14.66,2.56-2.51-.05-4.94-.33-7.3-.82-2.36-.49-4.47-1.2-6.35-2.12-1.88-.93-3.36-2.07-4.45-3.43-1.09-1.36-1.61-2.93-1.58-4.72.03-1.26.46-2.37,1.28-3.32.83-.95,1.84-1.69,3.05-2.22,1.2-.53,2.37-.78,3.51-.76,1.12.02,2.05.27,2.79.73s1.1,1.19,1.08,2.17c-.02,1.1-.34,1.86-.96,2.3-.62.43-1.42.64-2.41.62-.7-.02-1.27-.18-1.71-.5-.44-.32-.87-.64-1.29-.96-.42-.32-.92-.49-1.5-.5-.59-.01-1,.08-1.23.29-.23.21-.36.5-.36.88-.01.64.36,1.2,1.13,1.68.77.48,1.8.89,3.1,1.23,1.29.34,2.72.62,4.27.83,1.55.22,3.12.38,4.69.5s3.02.19,4.34.22c1.98.04,3.86.03,5.64-.03,1.78-.06,3.41-.17,4.88-.33,1.47-.16,2.74-.38,3.81-.66s1.9-.61,2.5-.99c.59-.38.9-.82.91-1.31.01-.68-.15-1.23-.5-1.66-.35-.43-.85-.78-1.5-1.06s-1.41-.52-2.27-.72l1.14-1.76c1.06.39,1.99.86,2.79,1.42s1.42,1.24,1.85,2.05c.43.81.63,1.8.61,2.97Z"/>
      <path d="m81.76,492.25l-2.14-.13.17-2.65-34.14-2.15-.17,2.65-2.14-.13.8-12.72,2.14.13-.17,2.71,34.14,2.15.17-2.71,2.14.13-.8,12.72Z"/>
      <path d="m82.61,478.07l-2.13-.22.23-2.21-35.63-8.89.42-4.03,36.81-2.45.27-2.56,2.13.22-1.3,12.48-2.13-.22.21-1.99-20.11.66v-.05s19.57,4.6,19.57,4.6l.19-1.8,2.13.22-.65,6.24Zm-6.37-4.93l-1.97-.21.59-5.7,1.97.21-.59,5.7Z"/>
      <path d="m87.02,446.31c-.46,3.05-2.53,5.27-6.21,6.66-3.68,1.38-8.63,1.61-14.87.67-2.48-.38-4.86-.96-7.13-1.74-2.27-.79-4.28-1.76-6.03-2.92-1.74-1.16-3.07-2.48-3.98-3.97-.91-1.49-1.23-3.11-.96-4.88.19-1.25.75-2.29,1.7-3.12.94-.84,2.04-1.44,3.31-1.82,1.26-.37,2.45-.47,3.58-.3,1.11.17,2,.53,2.67,1.08.68.56.94,1.32.79,2.29-.16,1.08-.58,1.8-1.24,2.15-.67.35-1.49.46-2.47.31-.69-.1-1.23-.34-1.63-.72-.4-.37-.78-.75-1.15-1.12-.37-.37-.85-.6-1.43-.69-.58-.09-1-.04-1.26.13-.26.17-.42.45-.47.83-.1.63.21,1.24.91,1.81s1.67,1.12,2.91,1.62c1.24.5,2.62.96,4.13,1.37s3.04.78,4.59,1.09c1.55.32,2.97.57,4.28.77,1.96.3,3.82.53,5.6.69,1.77.17,3.4.26,4.88.29,1.48.03,2.77-.03,3.86-.17,1.1-.14,1.96-.36,2.6-.66s.99-.7,1.07-1.18c.1-.67,0-1.24-.29-1.71s-.74-.88-1.36-1.24c-.61-.36-1.33-.69-2.16-1l1.35-1.6c1,.52,1.86,1.11,2.58,1.76.73.65,1.25,1.41,1.58,2.27.32.86.4,1.87.22,3.03Zm8.47.97c-.13.87-.36,1.69-.69,2.47-.33.78-.59,1.3-.78,1.55l-1.89-1.12c.16-.18.39-.57.69-1.17s.5-1.2.59-1.8c.08-.56.01-1.05-.22-1.47-.23-.42-.6-.67-1.11-.75-.58-.09-.98-.03-1.21.18-.23.21-.36.48-.42.82-.04.29-.03.57.05.84.08.27.23.52.46.73l-.41,1.96-4.25-2.28.32-2.11,2.74,1.55c-.1-.09-.2-.37-.3-.84-.11-.47-.11-1.03-.01-1.68.11-.72.44-1.37.99-1.93.55-.56,1.4-.76,2.56-.58.78.12,1.41.43,1.89.94.48.51.8,1.16.97,1.96.17.8.17,1.71.02,2.72Z"/>
      <path d="m50.35,415.66c-.15.73-.39,1.31-.72,1.73-.33.42-.65.78-.95,1.09-.31.31-.5.65-.57,1.03-.13.63-.1,1.12.08,1.48s.34.61.48.73l-1.21,1.96c-.32-.18-.66-.48-1.04-.91s-.67-.93-.9-1.51c-.23-.58-.28-1.17-.16-1.78.16-.81.4-1.41.7-1.8.3-.39.61-.74.91-1.04s.51-.72.62-1.26c.13-.63.1-1.09-.1-1.39s-.37-.51-.53-.64l1.28-1.87c.2.1.5.35.9.77s.73.92,1,1.5.34,1.22.2,1.9Zm40.32,10.64c-.39,1.93-1.5,3.5-3.32,4.71-1.82,1.21-4.25,1.95-7.32,2.23-3.06.28-6.67,0-10.81-.84-4.17-.85-7.62-2-10.34-3.46-2.72-1.46-4.69-3.1-5.9-4.92-1.21-1.82-1.62-3.7-1.23-5.63.4-1.97,1.52-3.56,3.34-4.79,1.83-1.22,4.29-1.98,7.37-2.28,3.08-.3,6.71-.02,10.88.83,4.15.84,7.58,2,10.28,3.48s4.65,3.13,5.85,4.97c1.2,1.84,1.6,3.74,1.2,5.71Zm-2.1-.43c.1-.48-.18-.96-.85-1.42-.66-.46-1.71-.94-3.13-1.43-1.42-.49-3.21-1-5.34-1.52-2.14-.52-4.63-1.07-7.47-1.64s-5.35-1.05-7.53-1.41c-2.18-.36-4.03-.59-5.54-.69-1.51-.1-2.67-.07-3.48.09-.81.16-1.26.48-1.36.97-.09.47.2.93.88,1.38.68.46,1.75.92,3.18,1.39,1.44.47,3.23.96,5.38,1.49,2.15.52,4.64,1.07,7.48,1.65,2.84.58,5.34,1.04,7.52,1.4,2.17.36,4.01.6,5.51.73,1.5.13,2.64.11,3.43-.04.79-.16,1.23-.47,1.33-.93Z"/>
      <path d="m92.76,413.48l-2.08-.54.66-2.55-33.13-8.53-.66,2.55-2.08-.54,4.4-17.09,9.29,2.39-.53,2.07c-1.44-.37-2.74-.55-3.91-.54-1.17.01-2.13.24-2.88.7s-1.26,1.18-1.51,2.17l-.28,1.09,15.53,4,1.06-4.11-2.45-.63.53-2.04,6.87,1.77-.53,2.04-2.34-.6-1.06,4.11,15.53,4,.28-1.09c.25-.99.15-1.87-.3-2.64-.46-.77-1.2-1.44-2.22-2.02s-2.26-1.05-3.7-1.42l.53-2.07,9.37,2.41-4.4,17.09Z"/>
      <path d="m101.34,385.07c-.31,1.01-.67,1.78-1.08,2.3s-.82.91-1.22,1.16c-.4.25-.75.45-1.05.6s-.48.35-.56.62c-.16.51.28.92,1.32,1.24l-.6,1.96-9.33-2.87.63-2.04c.36.09.87.15,1.56.18.68.03,1.44,0,2.27-.09.83-.09,1.65-.27,2.46-.53.81-.27,1.53-.65,2.15-1.15.62-.5,1.06-1.16,1.31-1.98.2-.66.24-1.23.11-1.7-.13-.47-.43-.88-.89-1.22-.46-.34-1.08-.63-1.87-.88-1.02-.31-2.11-.4-3.29-.25-1.18.15-2.48.45-3.91.92-1.43.47-3.03,1.05-4.8,1.75-2.18.84-4.12,1.41-5.83,1.71-1.71.3-3.28.38-4.71.24-1.43-.13-2.81-.41-4.16-.82-2-.61-3.56-1.47-4.69-2.56-1.13-1.09-1.87-2.29-2.22-3.58s-.34-2.55.04-3.77c.33-1.08.75-1.85,1.26-2.31.5-.46.98-.79,1.41-1s.71-.47.8-.79c.07-.23.03-.43-.13-.61-.16-.18-.52-.37-1.09-.56l.6-1.96,9.28,2.85-.62,2.02c-.54-.13-1.26-.21-2.18-.24s-1.88.03-2.89.19-1.91.47-2.7.93c-.79.46-1.33,1.14-1.6,2.03s-.16,1.67.33,2.34c.5.67,1.32,1.18,2.48,1.54.86.26,1.88.33,3.07.18,1.18-.14,2.51-.46,3.96-.96,1.46-.5,3.04-1.12,4.74-1.85,1.79-.84,3.47-1.45,5.03-1.81,1.56-.36,3.09-.51,4.6-.45s3.05.33,4.62.82c1.95.6,3.48,1.32,4.6,2.16s1.92,1.74,2.41,2.69c.48.95.74,1.91.76,2.87s-.1,1.86-.36,2.7Z"/>
      <path d="m106.99,365.4l-2-.78.94-2.43-31.88-12.42-.94,2.43-2-.78,4.1-10.52c.66-1.7,1.95-3.03,3.85-3.98,1.91-.95,4.34-1.37,7.31-1.25,2.96.12,6.39.93,10.26,2.44,3.91,1.52,7.04,3.27,9.4,5.23,2.35,1.97,3.95,3.96,4.78,5.98s.93,3.88.27,5.56l-4.1,10.52Zm1.65-10.15l.31-.79c.22-.56-.18-1.33-1.21-2.31-1.03-.98-2.68-2.1-4.98-3.37-2.29-1.26-5.21-2.59-8.74-3.96-3.26-1.27-6.12-2.21-8.59-2.8-2.46-.6-4.41-.9-5.85-.9-1.44,0-2.26.26-2.46.79l-.36.92,31.88,12.42Z"/>
      <path d="m114.94,345.05l-1.96-.87.9-2.03-31.1-19.52,1.65-3.7,35.75,9.1,1.05-2.35,1.96.87-5.11,11.46-1.96-.87.81-1.83-19.32-5.62.02-.05,17.17,10.45.74-1.65,1.96.87-2.56,5.73Zm-4.52-6.67l-1.81-.81,2.33-5.23,1.81.81-2.33,5.23Z"/>
      <path d="m128.22,318.21c-.47.95-.96,1.65-1.45,2.09-.49.45-.96.76-1.39.94-.44.18-.81.32-1.13.42s-.54.27-.66.51c-.24.47.13.95,1.09,1.44l-.92,1.84-8.73-4.37.96-1.91c.34.15.84.29,1.51.43s1.42.24,2.26.29c.83.05,1.67.01,2.52-.12.84-.13,1.61-.39,2.31-.77s1.24-.96,1.62-1.73c.31-.62.44-1.17.39-1.66s-.28-.94-.68-1.35c-.4-.41-.97-.8-1.7-1.17-.95-.48-2.02-.74-3.2-.79s-2.52.04-4.01.26c-1.49.23-3.16.54-5.02.93-2.29.47-4.3.71-6.03.72-1.74,0-3.3-.17-4.68-.54-1.38-.37-2.71-.87-3.97-1.5-1.87-.94-3.27-2.04-4.21-3.3-.93-1.26-1.47-2.56-1.6-3.9-.13-1.33.09-2.57.66-3.71.51-1.01,1.05-1.7,1.62-2.07.57-.37,1.09-.62,1.56-.75.47-.13.77-.35.92-.64.11-.21.1-.42-.03-.62-.12-.21-.45-.45-.98-.74l.92-1.84,8.68,4.35-.94,1.89c-.51-.21-1.21-.41-2.11-.6-.9-.19-1.86-.28-2.88-.29-1.02,0-1.96.15-2.82.47-.86.33-1.5.9-1.92,1.74s-.44,1.62-.06,2.36c.38.74,1.11,1.38,2.19,1.92.8.4,1.8.63,2.99.69,1.19.06,2.55-.04,4.07-.29,1.52-.25,3.18-.6,4.98-1.04,1.91-.54,3.66-.85,5.26-.95s3.13,0,4.61.32c1.48.31,2.95.83,4.43,1.57,1.82.91,3.21,1.88,4.18,2.89s1.61,2.03,1.93,3.05.41,2,.27,2.96c-.14.95-.4,1.82-.8,2.6Z"/>
      <path d="m143.17,290.53c-1.57,2.66-4.32,3.94-8.24,3.85-3.93-.09-8.61-1.74-14.04-4.94-2.16-1.28-4.15-2.7-5.97-4.28-1.81-1.58-3.31-3.23-4.5-4.96s-1.92-3.45-2.2-5.17c-.29-1.72.03-3.35.94-4.89.64-1.09,1.55-1.84,2.74-2.26,1.19-.42,2.44-.57,3.75-.45,1.31.13,2.45.48,3.43,1.05.96.57,1.65,1.24,2.07,2s.38,1.58-.12,2.43c-.56.94-1.21,1.46-1.96,1.53-.75.08-1.55-.13-2.4-.64-.6-.35-1.01-.78-1.24-1.27-.23-.5-.45-.98-.65-1.47-.21-.48-.56-.87-1.07-1.17-.5-.3-.91-.41-1.21-.35-.3.07-.55.26-.75.59-.33.55-.27,1.22.16,2.02.43.8,1.13,1.66,2.1,2.59.96.93,2.07,1.87,3.32,2.82,1.25.95,2.53,1.86,3.85,2.73s2.54,1.64,3.68,2.31c1.71,1.01,3.35,1.92,4.93,2.74,1.58.82,3.05,1.52,4.42,2.1s2.58,1.01,3.64,1.29c1.07.28,1.96.4,2.66.36.71-.04,1.18-.27,1.43-.7.34-.58.47-1.14.37-1.69-.09-.54-.36-1.1-.79-1.66s-.97-1.14-1.62-1.74l1.85-.97c.73.86,1.31,1.72,1.74,2.6s.63,1.78.61,2.7c-.02.92-.33,1.88-.92,2.89Z"/>
      <path d="m154.04,273.33c-1.09,1.65-2.7,2.69-4.83,3.13-2.14.44-4.67.22-7.62-.66-2.94-.88-6.18-2.49-9.72-4.82-3.55-2.34-6.32-4.7-8.3-7.07-1.98-2.37-3.19-4.63-3.64-6.77s-.12-4.04.97-5.68c1.11-1.68,2.74-2.74,4.89-3.19,2.15-.45,4.71-.24,7.68.64,2.97.88,6.23,2.49,9.78,4.83,3.53,2.33,6.28,4.69,8.24,7.06s3.15,4.64,3.57,6.79c.42,2.15.08,4.07-1.02,5.74Zm-1.79-1.18c.27-.41.19-.96-.26-1.63s-1.23-1.51-2.37-2.5c-1.14-.99-2.6-2.13-4.39-3.41-1.79-1.28-3.89-2.72-6.31-4.32-2.42-1.6-4.57-2.97-6.46-4.12-1.89-1.15-3.52-2.05-4.88-2.71-1.37-.66-2.45-1.07-3.26-1.22-.81-.15-1.35-.02-1.62.39-.26.4-.16.93.3,1.61.46.68,1.28,1.5,2.43,2.48,1.16.97,2.64,2.1,4.44,3.39,1.8,1.29,3.91,2.73,6.32,4.32,2.42,1.6,4.57,2.97,6.45,4.11,1.88,1.14,3.49,2.05,4.83,2.73,1.34.68,2.41,1.09,3.2,1.24.79.15,1.32.03,1.58-.37Z"/>
      <path d="m159.92,263.18l-1.72-1.29,1.53-2.04-27.37-20.52-1.51,2.02-1.72-1.29,7.02-9.36,17.01,8.81-.62.83-12.59-14.71,6.46-8.62,1.72,1.29-1.53,2.04,27.38,20.52,1.56-2.08,1.72,1.29-7.62,10.17-1.72-1.29,1.63-2.17-26.82-20.1.66-.88,22.21,26.27-1.25,1.67-31.82-16.01.44-.59,28.06,21.03,1.28-1.71,1.72,1.29-4.08,5.44Z"/>
      <path d="m186.04,230.83c-.6.71-1.33,1.37-2.19,1.99-.86.62-1.84,1.03-2.95,1.23s-2.35.08-3.72-.37c-1.37-.45-2.88-1.38-4.53-2.78l-20.48-17.35-1.77,2.09-1.64-1.39,8.59-10.14,1.64,1.39-1.97,2.32,20.71,17.55c1.92,1.62,3.48,2.61,4.68,2.96,1.2.35,2.16.11,2.87-.73.26-.31.43-.66.52-1.06.09-.4.05-.87-.11-1.4-.16-.53-.5-1.12-1.03-1.77-.52-.65-1.27-1.38-2.23-2.2l-21.38-18.12-1.56,1.84-1.64-1.39,4.66-5.5,1.64,1.39-1.68,1.99,21.53,18.24c1.71,1.45,2.86,2.8,3.47,4.07s.76,2.49.47,3.65-.93,2.33-1.91,3.48Z"/>
      <path d="m192.89,221.77l-1.56-1.47,1.75-1.86-24.91-23.45-1.75,1.86-1.56-1.47,7.38-7.84,20.36,9.87-.26.28-14.16-13.33-1.65,1.76-1.56-1.47,4.83-5.13,1.56,1.47-1.67,1.78,26.47,24.92-3.02,3.21-32.26-15.68.32-.34,23.37,22,1.69-1.8,1.56,1.47-4.92,5.23Z"/>
      <path d="m209.53,204.31l-1.5-1.54,1.91-1.85-23.85-24.53-1.91,1.85-1.5-1.54,9.13-8.88,1.5,1.54-1.95,1.89,23.85,24.53,1.94-1.89,1.5,1.54-9.14,8.88Z"/>
      <path d="m220.6,193.49l-1.42-1.6,1.95-1.73-22.71-25.59-1.95,1.73-1.42-1.6,8.44-7.49c1.37-1.21,3.12-1.81,5.25-1.79s4.49.76,7.08,2.21c2.59,1.46,5.26,3.74,8.02,6.85,2.79,3.14,4.78,6.12,5.98,8.94,1.2,2.82,1.71,5.32,1.53,7.5-.18,2.18-.94,3.87-2.3,5.07l-8.44,7.49Zm6.1-8.28l.64-.56c.45-.4.44-1.27-.02-2.61-.47-1.34-1.43-3.09-2.89-5.26-1.46-2.17-3.45-4.67-5.97-7.51-2.32-2.62-4.45-4.75-6.37-6.41-1.92-1.65-3.52-2.81-4.8-3.46-1.28-.66-2.13-.79-2.55-.42l-.74.66,22.71,25.58Z"/>
      <path d="m236.96,178.99l-1.35-1.67,1.73-1.39-18.81-31.53,3.16-2.55,27.68,24.38,2-1.62,1.35,1.67-9.77,7.88-1.35-1.67,1.56-1.25-14.65-13.8.04-.03,10.53,17.12,1.41-1.14,1.35,1.67-4.89,3.94Zm-.99-8l-1.24-1.54,4.46-3.59,1.24,1.54-4.46,3.59Z"/>
      <path d="m252.68,166.29l-1.26-1.73,2.1-1.54-20.18-27.63-2.1,1.54-1.26-1.73,9.12-6.66c1.48-1.08,3.27-1.5,5.39-1.28s4.4,1.18,6.83,2.88c2.44,1.69,4.88,4.22,7.34,7.58,2.48,3.39,4.18,6.55,5.1,9.47.92,2.92,1.19,5.46.81,7.62s-1.31,3.76-2.77,4.83l-9.12,6.66Zm6.86-7.66l.69-.5c.49-.36.56-1.22.22-2.6-.34-1.38-1.13-3.21-2.38-5.51-1.25-2.3-2.99-4.98-5.23-8.05-2.07-2.83-3.97-5.16-5.73-6.99-1.75-1.83-3.24-3.13-4.45-3.9s-2.04-.99-2.5-.66l-.8.58,20.18,27.63Z"/>
      <path d="m271.86,152.39l-1.18-1.79,2.2-1.44-18.78-28.6-2.2,1.44-1.18-1.79,14.75-9.69,5.27,8.02-1.79,1.17c-.82-1.24-1.66-2.25-2.53-3.03-.87-.78-1.74-1.25-2.6-1.42-.86-.17-1.72.03-2.58.59l-.94.62,8.8,13.4,3.55-2.33-1.39-2.12,1.76-1.16,3.89,5.93-1.76,1.16-1.33-2.02-3.55,2.33,8.8,13.4.94-.62c.85-.56,1.37-1.28,1.55-2.15.18-.87.08-1.87-.29-2.99-.37-1.12-.96-2.29-1.78-3.54l1.79-1.17,5.31,8.09-14.75,9.69Z"/>
      <path d="m297.31,137.13c-.91.54-1.7.87-2.35.98-.66.11-1.22.12-1.68.04-.46-.09-.86-.17-1.17-.26-.32-.09-.59-.06-.83.08-.46.27-.41.87.15,1.8l-1.77,1.05-4.98-8.4,1.84-1.09c.2.31.55.7,1.03,1.18.49.48,1.07.97,1.74,1.46s1.4.92,2.18,1.26c.78.35,1.57.55,2.36.6s1.56-.14,2.3-.58c.6-.35,1-.75,1.22-1.19.22-.44.27-.94.16-1.5-.11-.56-.38-1.2-.8-1.91-.54-.91-1.3-1.71-2.27-2.4-.97-.68-2.14-1.33-3.51-1.95-1.37-.61-2.95-1.26-4.73-1.93-2.18-.84-4-1.73-5.46-2.66-1.47-.93-2.68-1.92-3.65-2.98-.97-1.06-1.81-2.19-2.53-3.41-1.07-1.8-1.65-3.48-1.75-5.05-.1-1.57.15-2.95.76-4.14.61-1.19,1.46-2.12,2.56-2.77.97-.58,1.8-.87,2.48-.87.68,0,1.25.07,1.72.21.47.14.84.13,1.12-.04.2-.12.31-.3.32-.54,0-.24-.14-.62-.43-1.15l1.77-1.05,4.95,8.35-1.81,1.08c-.31-.46-.8-1-1.46-1.65-.66-.64-1.41-1.24-2.27-1.8-.85-.56-1.73-.94-2.63-1.13-.9-.19-1.75-.05-2.55.43-.8.48-1.24,1.13-1.33,1.95-.08.83.18,1.76.8,2.8.46.77,1.17,1.5,2.15,2.2.97.69,2.17,1.34,3.58,1.95,1.41.61,3,1.22,4.76,1.81,1.9.58,3.54,1.26,4.94,2.04,1.4.78,2.63,1.7,3.71,2.76,1.07,1.06,2.03,2.3,2.87,3.71,1.04,1.75,1.69,3.31,1.96,4.69.26,1.38.26,2.58-.02,3.61-.28,1.03-.74,1.91-1.37,2.63-.63.73-1.32,1.31-2.08,1.76Z"/>
      <path d="m317.76,124.84l-.96-1.92,2.89-1.45-15.33-30.58-.39.2c-1.06.53-1.75,1.17-2.05,1.9s-.3,1.64,0,2.7c.31,1.07.85,2.38,1.63,3.93l-1.91.96-4.3-8.58,18.67-9.36,4.3,8.58-1.89.95c-.78-1.56-1.5-2.78-2.17-3.66-.67-.88-1.39-1.43-2.16-1.62-.77-.2-1.69-.03-2.75.5l-.39.2,15.33,30.58,2.99-1.5.96,1.92-12.47,6.25Z"/>
      <path d="m353.91,108.56c-1.68.73-3.06.89-4.15.48s-2.03-1.22-2.81-2.45c-.78-1.23-1.54-2.7-2.29-4.42-.38-.88-.73-1.72-1.05-2.53-.32-.81-.59-1.46-.8-1.95-.53-1.23-1.02-2.12-1.46-2.68-.44-.56-.91-.87-1.42-.93s-1.1.06-1.79.35l-.98.42,6.59,15.22,2.61-1.13.85,1.97-12.04,5.22-.85-1.97,2.74-1.19-13.6-31.39-2.74,1.19-.85-1.97,11.97-5.19c1.51-.65,3-.96,4.48-.94,1.48.03,2.84.49,4.1,1.37,1.26.88,2.31,2.29,3.15,4.23.62,1.43.94,2.78.95,4.05.01,1.27-.19,2.43-.62,3.46-.43,1.04-.98,1.94-1.65,2.71s-1.38,1.39-2.14,1.86c1.91-.73,3.5-1.04,4.77-.94,1.27.1,2.36.64,3.27,1.62.91.98,1.79,2.45,2.64,4.4.39.91.75,1.82,1.08,2.73s.65,1.73.97,2.47c.19.44.4.88.64,1.33.23.45.48.81.73,1.08s.48.36.69.27c.22-.09.33-.25.35-.47s-.02-.44-.09-.66l1.81-.78c.23.8.26,1.51.11,2.14s-.5,1.19-1.03,1.69c-.53.5-1.24.94-2.13,1.33Zm-17.6-15.66l1.08-.47c.62-.27.98-.84,1.09-1.72s0-1.96-.3-3.25c-.31-1.29-.78-2.66-1.41-4.11-.6-1.38-1.21-2.49-1.82-3.35s-1.24-1.43-1.85-1.73c-.62-.3-1.23-.32-1.83-.06l-1.11.48,6.16,14.21Z"/>
      <path d="m358.06,106.3l-.75-2.01,2.08-.77-7.86-35.87,3.8-1.42,18.54,31.89,2.41-.9.75,2.01-11.76,4.38-.75-2.01,1.88-.7-9.52-17.73.05-.02,4.57,19.57,1.7-.63.75,2.01-5.88,2.19Zm1.59-7.9l-.69-1.86,5.37-2,.69,1.86-5.37,2Z"/>
      <path d="m377.01,99.23l-.65-2.04,2.48-.79-10.37-32.6-2.48.79-.65-2.04,10.76-3.42c1.74-.55,3.58-.39,5.52.49,1.94.88,3.79,2.52,5.57,4.89,1.77,2.38,3.29,5.55,4.55,9.52,1.27,4,1.88,7.53,1.83,10.6s-.6,5.56-1.65,7.48c-1.05,1.92-2.43,3.15-4.16,3.7l-10.76,3.42Zm8.93-5.09l.81-.26c.57-.18.92-.98,1.04-2.39s-.05-3.41-.51-5.99c-.46-2.58-1.26-5.67-2.41-9.29-1.06-3.34-2.13-6.15-3.22-8.44s-2.08-4-2.98-5.11c-.9-1.12-1.62-1.59-2.16-1.42l-.94.3,10.37,32.6Z"/>
      <path d="m400.12,92.03l-.56-2.07,2.57-.69-8.91-33.03-2.57.69-.56-2.07,12.3-3.32.56,2.07-2.62.71,8.91,33.03,2.62-.71.56,2.07-12.3,3.32Z"/>
      <path d="m425.46,86.22c-3.01.68-5.83-.44-8.46-3.36-2.63-2.92-4.64-7.46-6.03-13.61-.55-2.45-.88-4.88-.98-7.28-.09-2.4.08-4.63.53-6.67.44-2.05,1.19-3.76,2.25-5.15,1.05-1.38,2.45-2.28,4.2-2.67,1.23-.28,2.41-.13,3.53.44,1.12.57,2.09,1.38,2.89,2.42.81,1.04,1.33,2.11,1.59,3.22.25,1.09.24,2.05-.04,2.88-.27.83-.89,1.36-1.85,1.58-1.07.24-1.89.12-2.46-.37s-.96-1.22-1.18-2.19c-.15-.68-.13-1.27.07-1.78.2-.51.41-1,.62-1.48.21-.48.25-1.01.12-1.58-.13-.57-.32-.95-.58-1.12-.26-.18-.57-.22-.95-.14-.62.14-1.08.64-1.36,1.51-.28.86-.43,1.96-.45,3.3-.02,1.34.06,2.79.23,4.35.17,1.56.38,3.12.65,4.67s.55,2.98.84,4.26c.44,1.93.9,3.75,1.39,5.46s.99,3.26,1.5,4.65c.51,1.39,1.03,2.57,1.56,3.54.53.97,1.05,1.7,1.56,2.18.51.49,1.01.67,1.49.56.66-.15,1.15-.44,1.49-.89s.55-1.01.67-1.72.16-1.49.15-2.37l1.98.68c-.12,1.12-.36,2.13-.7,3.05-.35.92-.86,1.68-1.54,2.3-.69.62-1.6,1.05-2.74,1.31Z"/>
      <path d="m435.17,83.58l-.39-2.11,2.61-.48-6.17-33.65-2.61.48-.39-2.11,12.53-2.3.39,2.11-2.67.49,6.17,33.65,2.67-.49.39,2.11-12.53,2.3Z"/>
      <path d="m460.76,79.94c-1.95.27-3.8-.25-5.54-1.57-1.74-1.31-3.25-3.37-4.53-6.16-1.28-2.79-2.21-6.29-2.79-10.48-.58-4.21-.64-7.85-.16-10.9.47-3.05,1.37-5.45,2.69-7.2,1.32-1.75,2.95-2.75,4.91-3.02,1.99-.28,3.87.25,5.62,1.57s3.29,3.39,4.59,6.2c1.3,2.81,2.24,6.32,2.82,10.53.58,4.2.62,7.81.13,10.85-.49,3.04-1.41,5.43-2.75,7.17s-3,2.75-4.99,3.02Zm-.29-2.12c.49-.07.84-.49,1.06-1.27.21-.78.32-1.92.31-3.43s-.12-3.36-.34-5.55c-.22-2.19-.53-4.72-.92-7.59-.4-2.87-.79-5.39-1.17-7.57-.38-2.18-.78-4-1.18-5.46-.41-1.46-.82-2.55-1.24-3.26-.42-.71-.88-1.03-1.36-.96-.47.07-.81.5-1.01,1.29s-.29,1.95-.25,3.46c.03,1.51.16,3.37.38,5.57.22,2.2.53,4.73.92,7.6.4,2.87.79,5.39,1.17,7.56.38,2.17.76,3.98,1.14,5.44.38,1.46.77,2.53,1.18,3.22.41.69.85,1.01,1.32.94Z"/>
      <path d="m472.54,77.74l-.18-2.14,2.54-.22-2.92-34.08-2.54.22-.18-2.14,10.73-.92,8.58,20.93-.38.03-1.66-19.37-2.4.21-.18-2.14,7.02-.6.18,2.14-2.43.21,3.1,36.22-4.4.38-13.57-33.2.46-.04,2.73,31.98,2.46-.21.18,2.14-7.15.61Z"/>
      <path d="m494.78,75.87l-.08-2.14,2.22-.08,3.8-36.52,4.05-.15,7.59,36.1,2.57-.1.08,2.14-12.54.47-.08-2.14,2-.07-3.48-19.82h.05s-1.81,20.02-1.81,20.02l1.81-.07.08,2.14-6.27.23Zm3.99-7l-.07-1.98,5.72-.21.07,1.98-5.72.21Z"/>
      <path d="m515.46,75.08l.03-2.14,2.66.04.55-34.21-2.66-.04.03-2.14,12.74.21-.04,2.14-2.71-.04-.55,34.21,2.71.04-.03,2.15-12.74-.21Z"/>
      <path d="m539.85,76.3c-1.06-.04-1.89-.2-2.5-.46s-1.09-.56-1.43-.88c-.34-.33-.62-.61-.84-.86-.22-.25-.46-.38-.74-.39-.53-.02-.82.51-.86,1.59l-2.05-.08.39-9.75,2.14.09c0,.37.08.88.23,1.55.15.67.37,1.39.67,2.17.3.78.68,1.53,1.14,2.25.46.72,1.02,1.31,1.66,1.79.64.48,1.39.73,2.25.76.69.03,1.25-.08,1.67-.33.42-.25.74-.64.95-1.17.21-.53.34-1.21.37-2.04.04-1.06-.16-2.14-.6-3.24-.44-1.1-1.07-2.28-1.89-3.54s-1.79-2.66-2.92-4.19c-1.37-1.89-2.41-3.62-3.14-5.2-.72-1.58-1.2-3.08-1.44-4.49s-.33-2.82-.27-4.24c.08-2.09.51-3.82,1.28-5.19s1.73-2.39,2.89-3.06c1.16-.67,2.38-.98,3.66-.93,1.13.05,1.98.25,2.55.62.57.37,1.01.74,1.33,1.11.31.37.64.56.96.58.24,0,.42-.08.56-.28.13-.2.22-.6.27-1.2l2.05.08-.39,9.7-2.11-.08c-.01-.55-.12-1.28-.32-2.17-.2-.9-.51-1.81-.92-2.75-.41-.93-.94-1.73-1.59-2.38-.65-.65-1.44-.99-2.37-1.03-.93-.04-1.66.27-2.18.92-.52.65-.8,1.58-.85,2.79-.04.9.17,1.9.61,3.01.44,1.11,1.09,2.3,1.94,3.59.86,1.28,1.86,2.65,3,4.11,1.27,1.52,2.29,2.99,3.03,4.4.75,1.42,1.29,2.86,1.61,4.33s.46,3.03.39,4.68c-.08,2.03-.38,3.7-.91,5-.53,1.3-1.19,2.31-1.99,3.02-.79.71-1.66,1.2-2.58,1.47-.93.27-1.83.38-2.7.35Z"/>
      <path d="m552.88,82.48l-1.64-2.35c.42-.19.92-.47,1.5-.83.58-.36,1.11-.75,1.57-1.15.46-.41.7-.79.73-1.16.02-.24-.04-.36-.16-.37-.13,0-.28.04-.45.16-.17.12-.5.16-.97.12-.55-.04-1.06-.23-1.54-.57s-.86-.81-1.15-1.41c-.29-.6-.4-1.3-.34-2.11.09-1.19.56-2.09,1.41-2.71s1.88-.88,3.08-.79c1.16.09,2.17.53,3.01,1.34s1.2,1.94,1.09,3.4c-.13,1.77-.53,3.21-1.21,4.29s-1.46,1.95-2.36,2.58c-.9.63-1.76,1.15-2.57,1.55Z"/>
      <path d="m570.12,77.69l.29-2.12,2.58.35,4.56-33.9-2.58-.35.29-2.13,11.19,1.51c1.81.24,3.4,1.18,4.78,2.81s2.36,3.9,2.94,6.8c.59,2.91.6,6.43.04,10.55-.56,4.16-1.52,7.62-2.87,10.37-1.36,2.75-2.92,4.77-4.69,6.06-1.77,1.29-3.55,1.81-5.34,1.57l-11.19-1.51Zm10.25-.78l.84.11c.6.08,1.25-.49,1.96-1.72.71-1.23,1.41-3.1,2.1-5.63.69-2.52,1.29-5.67,1.79-9.43.47-3.47.7-6.47.7-9.01s-.17-4.5-.51-5.9c-.34-1.4-.79-2.13-1.35-2.21l-.98-.13-4.56,33.91Z"/>
      <path d="m591.78,80.62l.39-2.11,2.18.4,11.62-34.83,3.99.73-.41,36.89,2.54.46-.39,2.11-12.35-2.26.39-2.11,1.97.36.9-20.1h.05s-6.1,19.16-6.1,19.16l1.78.33-.39,2.11-6.17-1.13Zm5.41-5.97l.36-1.95,5.63,1.03-.36,1.95-5.63-1.03Z"/>
      <path d="m621.16,86.35l.53-2.08,2.15.55,13.97-33.96,3.93,1-2.92,36.77,2.5.64-.53,2.08-12.16-3.1.53-2.08,1.94.49,2.27-20h.05s-7.39,18.71-7.39,18.71l1.75.45-.53,2.08-6.08-1.55Zm5.81-5.59l.49-1.92,5.55,1.41-.49,1.92-5.55-1.41Z"/>
      <path d="m651.21,95.1c-1.92-.59-3.48-1.78-4.67-3.58-1.19-1.8-1.83-4.24-1.92-7.31-.09-3.08.53-6.81,1.87-11.19,1.22-4.02,2.81-7.27,4.76-9.78s3.98-4.24,6.09-5.23c2.11-.98,4.04-1.21,5.79-.68,1.36.42,2.45,1.11,3.27,2.09.82.98,1.35,2.1,1.61,3.38s.17,2.59-.24,3.94c-.34,1.12-.87,1.95-1.58,2.49-.71.54-1.53.67-2.45.39-1.03-.31-1.67-.88-1.91-1.69-.24-.81-.22-1.68.07-2.61.19-.61.49-1.08.9-1.39.41-.32.81-.61,1.19-.89.38-.28.65-.68.81-1.2.13-.42.05-.88-.22-1.39s-.69-.84-1.25-1.01c-.84-.26-1.71.07-2.62.97-.91.9-1.8,2.16-2.67,3.79-.88,1.62-1.69,3.4-2.44,5.35-.75,1.95-1.4,3.83-1.95,5.66-.86,2.82-1.52,5.31-1.98,7.46-.46,2.15-.74,3.97-.86,5.45s-.08,2.63.11,3.44c.19.82.51,1.29.97,1.43.24.07.45.09.6.04s.3-.12.42-.22l3.83-12.55-1.99-.61.63-2.05,10.64,3.25-.63,2.05-2.23-.68-4.45,14.6-2.1-.64c0-.06-.09-.2-.25-.44s-.43-.41-.8-.52c-.33-.1-.69-.11-1.07-.02-.38.09-.83.15-1.35.19-.52.04-1.16-.05-1.93-.29Z"/>
      <path d="m681.72,105.57c-1.71-.63-2.83-1.47-3.34-2.52s-.62-2.29-.34-3.71.75-3.02,1.39-4.78c.33-.89.66-1.75.98-2.55.33-.81.58-1.46.77-1.96.46-1.26.73-2.24.79-2.95.06-.71-.06-1.26-.39-1.65-.32-.39-.83-.72-1.54-.98l-1-.37-5.73,15.56,2.67.98-.74,2.01-12.32-4.54.74-2.01,2.8,1.03,11.82-32.1-2.8-1.03.74-2.01,12.24,4.51c1.54.57,2.84,1.37,3.89,2.41,1.05,1.04,1.72,2.31,2.02,3.82.3,1.51.09,3.25-.64,5.23-.54,1.46-1.24,2.66-2.11,3.59-.87.93-1.81,1.62-2.84,2.08-1.03.45-2.04.73-3.06.82-1.02.09-1.96.05-2.83-.13,1.89.79,3.26,1.66,4.11,2.61s1.26,2.09,1.25,3.43c-.02,1.34-.39,3.01-1.13,5.01-.34.93-.71,1.83-1.1,2.71-.39.88-.73,1.7-1.01,2.46-.16.45-.32.91-.46,1.4-.14.49-.21.91-.21,1.29,0,.37.1.59.31.67.22.08.41.05.58-.1.16-.15.29-.33.39-.54l1.85.68c-.39.74-.86,1.28-1.4,1.62-.54.35-1.18.52-1.91.51-.73,0-1.55-.17-2.46-.51Zm-1.93-23.48l1.11.41c.63.23,1.29.07,1.98-.49.68-.56,1.36-1.41,2.02-2.57.67-1.15,1.27-2.47,1.82-3.95.52-1.41.85-2.64.99-3.68.14-1.04.09-1.89-.15-2.53-.24-.65-.67-1.08-1.29-1.31l-1.13-.42-5.35,14.53Z"/>
      <path d="m687.95,107.56l.84-1.97,2.45,1.04,13.36-31.5-2.45-1.04.84-1.97,11.73,4.97-.84,1.97-2.5-1.06-13.36,31.5,2.5,1.06-.84,1.97-11.73-4.97Z"/>
      <path d="m711.46,118.6c-2.79-1.32-4.32-3.94-4.59-7.86s.94-8.73,3.64-14.43c1.07-2.27,2.31-4.38,3.72-6.33,1.41-1.95,2.92-3.59,4.53-4.93,1.61-1.34,3.26-2.23,4.94-2.67s3.33-.28,4.95.49c1.14.54,1.97,1.38,2.51,2.52.53,1.14.79,2.37.79,3.69s-.25,2.49-.74,3.51c-.48,1.01-1.08,1.76-1.81,2.25s-1.54.52-2.43.1c-.99-.47-1.56-1.07-1.71-1.81-.14-.74,0-1.55.42-2.45.3-.63.68-1.08,1.16-1.35s.94-.53,1.4-.78c.46-.25.82-.64,1.07-1.17.25-.53.33-.94.24-1.24s-.31-.53-.66-.69c-.58-.27-1.24-.16-2,.35-.75.51-1.55,1.28-2.39,2.32-.84,1.04-1.67,2.23-2.5,3.56-.83,1.33-1.62,2.69-2.37,4.08s-1.4,2.68-1.97,3.88c-.85,1.79-1.61,3.51-2.27,5.16-.67,1.65-1.23,3.18-1.68,4.59s-.77,2.66-.95,3.75-.22,1.98-.12,2.68c.11.7.38,1.15.83,1.36.61.29,1.18.36,1.71.22.53-.14,1.06-.46,1.58-.94s1.05-1.08,1.58-1.78l1.14,1.75c-.79.81-1.6,1.46-2.43,1.97-.84.51-1.71.79-2.63.86-.92.06-1.91-.16-2.96-.66Z"/>
      <path d="m729.88,128.07c-.82-.44-1.62-1.01-2.4-1.72-.78-.71-1.39-1.58-1.82-2.63-.44-1.04-.58-2.28-.42-3.72.15-1.43.74-3.11,1.76-5.01l12.66-23.67-2.42-1.29,1.01-1.89,11.72,6.27-1.01,1.89-2.68-1.43-12.8,23.93c-1.19,2.21-1.82,3.95-1.91,5.2-.09,1.25.35,2.14,1.32,2.65.35.19.74.29,1.15.29.41,0,.86-.13,1.35-.4.49-.27.99-.73,1.51-1.38.52-.65,1.08-1.53,1.68-2.64l13.22-24.71-2.13-1.14,1.01-1.89,6.36,3.4-1.01,1.89-2.3-1.23-13.31,24.88c-1.05,1.97-2.14,3.39-3.25,4.25-1.11.86-2.27,1.27-3.47,1.23-1.2-.04-2.47-.42-3.81-1.13Z"/>
      <path d="m740.69,133.22l1.1-1.84,2.12,1.27,17.57-29.35-2.12-1.27,1.1-1.84,10.6,6.35-1.1,1.84-2.19-1.31-17.57,29.35.87.52c.66.39,1.38.45,2.17.16s1.59-.85,2.41-1.68c.82-.83,1.6-1.87,2.35-3.12l1.83,1.1-4.97,8.3-14.18-8.49Z"/>
      <path d="m757.86,143.61l1.18-1.79,2.7,1.78,18.79-28.59-.37-.24c-.99-.65-1.88-.93-2.67-.82s-1.57.56-2.34,1.36c-.77.8-1.63,1.93-2.58,3.38l-1.79-1.17,5.27-8.02,17.45,11.47-5.27,8.02-1.76-1.16c.96-1.46,1.65-2.69,2.08-3.72.43-1.02.54-1.92.32-2.68s-.82-1.48-1.81-2.13l-.37-.24-18.79,28.59,2.79,1.84-1.18,1.79-11.66-7.66Z"/>
      <path d="m782.68,161.47c-.75-.55-1.46-1.23-2.14-2.04-.67-.81-1.15-1.77-1.43-2.86-.29-1.1-.25-2.34.11-3.74.36-1.4,1.18-2.97,2.46-4.71l15.88-21.64-2.21-1.62,1.27-1.73,10.71,7.86-1.27,1.73-2.45-1.8-16.06,21.88c-1.49,2.03-2.36,3.65-2.63,4.88-.27,1.23.04,2.16.93,2.81.32.24.69.39,1.1.45.41.06.87,0,1.39-.21.52-.2,1.08-.58,1.69-1.15.61-.57,1.29-1.36,2.04-2.38l16.58-22.59-1.94-1.43,1.27-1.73,5.81,4.26-1.27,1.73-2.1-1.54-16.7,22.75c-1.32,1.8-2.6,3.05-3.82,3.75-1.22.69-2.43.94-3.61.73-1.18-.21-2.39-.76-3.61-1.66Z"/>
      <path d="m807.88,181.19c-1.41-1.16-2.18-2.32-2.32-3.48-.14-1.16.16-2.36.9-3.62.74-1.26,1.7-2.61,2.89-4.05.61-.74,1.2-1.43,1.77-2.09.57-.65,1.03-1.19,1.37-1.6.85-1.03,1.42-1.87,1.72-2.52.3-.65.36-1.21.18-1.69s-.55-.95-1.13-1.43l-.82-.68-10.54,12.8,2.2,1.81-1.36,1.66-10.13-8.34,1.36-1.66,2.31,1.9,21.75-26.41-2.31-1.9,1.36-1.66,10.07,8.29c1.27,1.05,2.23,2.23,2.87,3.56.65,1.33.86,2.75.65,4.28-.21,1.52-.99,3.1-2.33,4.73-.99,1.2-2.05,2.1-3.18,2.69s-2.25.93-3.36,1.02c-1.12.09-2.17.01-3.16-.23s-1.87-.6-2.62-1.06c1.52,1.37,2.53,2.64,3.01,3.82.49,1.17.5,2.39.04,3.65-.46,1.26-1.36,2.71-2.71,4.35-.63.76-1.28,1.5-1.94,2.2-.66.7-1.25,1.36-1.76,1.99-.3.37-.6.76-.89,1.17-.29.41-.5.79-.62,1.14-.12.35-.1.59.07.73.18.15.38.18.57.1.2-.08.38-.21.55-.39l1.52,1.25c-.61.57-1.23.92-1.86,1.07-.63.15-1.29.1-1.97-.15s-1.4-.67-2.15-1.29Zm5.93-22.8l.91.75c.52.43,1.2.49,2.03.19.83-.3,1.75-.89,2.76-1.75,1.01-.87,2.02-1.91,3.02-3.12.96-1.16,1.67-2.21,2.15-3.15s.71-1.75.7-2.44c-.01-.69-.27-1.24-.78-1.66l-.93-.77-9.84,11.95Z"/>
      <path d="m811.78,183.86l1.45-1.58,1.64,1.5,28.34-23.35,2.99,2.74-19.93,31.04,1.9,1.74-1.45,1.58-9.26-8.47,1.45-1.58,1.48,1.35,11.44-16.56.04.04-15.34,12.99,1.33,1.22-1.45,1.58-4.63-4.24Zm7.76-2.18l1.34-1.46,4.23,3.87-1.34,1.46-4.23-3.87Z"/>
      <path d="m835.03,205.74l1.55-1.48,1.81,1.91,24.78-23.59-1.81-1.91,1.55-1.48,11.66,12.25-6.95,6.62-1.47-1.55c1.07-1.02,1.96-1.99,2.64-2.91.69-.92,1.06-1.79,1.13-2.61.07-.82-.27-1.62-1.01-2.4l-.6-.64-11.08,10.54,2.87,3.02,1.79-1.71,1.47,1.55-5.14,4.89-1.47-1.55,1.81-1.73-2.87-3.02-12.17,11.58,1.81,1.91-1.55,1.48-8.75-9.19Z"/>
      <path d="m846.87,218.13l1.61-1.41,1.46,1.67,30.75-20.06,2.67,3.05-23.24,28.64,1.7,1.94-1.62,1.41-8.26-9.44,1.61-1.41,1.32,1.51,13.2-15.19.04.04-16.68,11.21,1.19,1.36-1.62,1.41-4.13-4.72Zm7.95-1.31l1.49-1.3,3.77,4.31-1.49,1.3-3.77-4.31Z"/>
      <path d="m859.84,232.75l1.69-1.32,1.57,2.01,26.93-21.1-1.55-1.98,1.69-1.32,7.22,9.21-12.93,14.13-.64-.82,17.47-8.33,6.64,8.48-1.69,1.32-1.57-2.01-26.93,21.1,1.61,2.05-1.69,1.32-7.84-10.01,1.69-1.32,1.67,2.13,26.38-20.68.68.86-31.13,14.62-1.28-1.64,23.73-26.57.46.58-27.6,21.63,1.32,1.68-1.69,1.32-4.19-5.35Z"/>
      <path d="m878.72,257.28l1.76-1.23,1.53,2.17,27.99-19.68-1.53-2.17,1.76-1.23,7.33,10.42-1.76,1.23-1.56-2.22-27.99,19.68,1.56,2.22-1.76,1.23-7.33-10.42Z"/>
      <path d="m887.73,270.12l1.8-1.16,1.34,2.07,28.76-18.52-1.33-2.07,1.8-1.16,6.69,10.39-1.8,1.16-1.38-2.14-28.76,18.52.55.85c.41.64,1.04,1.01,1.87,1.11s1.8-.05,2.91-.44c1.1-.39,2.26-.97,3.48-1.75l1.16,1.8-8.14,5.24-8.95-13.89Z"/>
      <path d="m898.44,286.93l1.85-1.09,1.35,2.29,29.49-17.34-1.35-2.29,1.85-1.09,6.46,10.98-1.85,1.09-1.38-2.34-29.49,17.34,1.38,2.34-1.85,1.09-6.46-10.98Z"/>
      <path d="m905.67,299.15l1.89-1.01,1.05,1.96,34.49-12.59,1.91,3.58-29.12,22.64,1.21,2.27-1.89,1.01-5.91-11.07,1.89-1.01.94,1.76,16.29-11.81.03.05-18.79,7.15.85,1.59-1.89,1.01-2.96-5.54Zm8.04.52l1.75-.93,2.7,5.05-1.75.93-2.7-5.05Z"/>
      <path d="m923.43,335.52c-.78-1.65-.98-3.03-.61-4.13s1.16-2.07,2.37-2.88c1.21-.82,2.65-1.63,4.35-2.42.86-.41,1.69-.78,2.49-1.13.8-.35,1.44-.63,1.92-.86,1.21-.57,2.09-1.08,2.63-1.54s.84-.94.88-1.45-.09-1.1-.41-1.78l-.46-.97-15,7.06,1.21,2.58-1.94.91-5.59-11.88,1.94-.91,1.27,2.7,30.95-14.57-1.27-2.7,1.94-.91,5.55,11.8c.7,1.49,1.06,2.97,1.07,4.45s-.4,2.86-1.24,4.14c-.84,1.29-2.22,2.38-4.13,3.28-1.41.66-2.75,1.02-4.02,1.08-1.27.05-2.43-.12-3.48-.51s-1.97-.92-2.76-1.56c-.79-.65-1.43-1.34-1.92-2.08.79,1.89,1.15,3.47,1.09,4.74-.06,1.27-.57,2.38-1.52,3.32-.95.94-2.39,1.87-4.32,2.77-.9.42-1.79.81-2.69,1.16-.9.35-1.71.7-2.44,1.04-.43.2-.87.43-1.31.68-.44.25-.79.5-1.05.77-.26.26-.35.5-.25.69.1.21.26.33.48.34.22,0,.44-.03.66-.11l.84,1.79c-.79.25-1.51.31-2.14.17-.63-.14-1.21-.46-1.72-.98s-.98-1.21-1.39-2.09Zm15.11-18.07l.5,1.07c.29.61.87.96,1.75,1.04s1.96-.05,3.24-.41,2.64-.86,4.07-1.53c1.36-.64,2.46-1.28,3.29-1.93.83-.64,1.39-1.28,1.67-1.91.28-.63.28-1.24,0-1.83l-.51-1.09-14.01,6.59Z"/>
      <path d="m930.22,350.15l2.01-.76.93,2.46,31.99-12.13-.93-2.46,2.01-.76,6.26,16.5-8.97,3.4-.76-2c1.39-.53,2.56-1.13,3.5-1.81s1.6-1.43,1.95-2.23c.35-.81.35-1.69-.02-2.64l-.4-1.05-14.99,5.68,1.51,3.97,2.37-.9.75,1.97-6.63,2.52-.75-1.97,2.26-.86-1.51-3.97-14.99,5.68.4,1.05c.36.96.95,1.62,1.77,1.98s1.81.49,2.98.37c1.17-.12,2.45-.44,3.84-.97l.76,2-9.05,3.43-6.26-16.5Z"/>
      <path d="m943.42,389.98c-.89-2.96.04-5.85,2.77-8.67,2.73-2.82,7.12-5.14,13.16-6.95,2.4-.72,4.8-1.21,7.2-1.47,2.39-.26,4.62-.24,6.7.07,2.07.3,3.83.93,5.29,1.89,1.45.96,2.44,2.29,2.95,4.01.36,1.21.29,2.39-.2,3.55s-1.23,2.18-2.21,3.05c-.98.88-2.02,1.48-3.11,1.8-1.07.32-2.03.38-2.88.16-.85-.21-1.41-.79-1.7-1.74-.32-1.05-.25-1.88.2-2.48s1.15-1.05,2.1-1.33c.67-.2,1.26-.22,1.78-.05.52.17,1.03.34,1.52.52.49.18,1.02.18,1.58.01.56-.17.92-.39,1.08-.65.16-.27.18-.58.07-.95-.18-.61-.71-1.03-1.6-1.25s-1.99-.29-3.32-.22-2.78.25-4.32.52c-1.54.27-3.08.6-4.62.97-1.54.37-2.93.75-4.2,1.13-1.9.57-3.68,1.16-5.36,1.76s-3.19,1.21-4.54,1.82-2.49,1.21-3.42,1.8c-.93.59-1.62,1.16-2.07,1.71s-.6,1.05-.46,1.53c.19.65.52,1.12.99,1.42s1.05.48,1.76.55c.71.06,1.5.06,2.38-.01l-.54,2.02c-1.12-.04-2.15-.21-3.09-.49-.94-.28-1.73-.74-2.39-1.38-.66-.64-1.16-1.52-1.5-2.64Z"/>
      <path d="m946.02,396.63l2.08-.53.54,2.15,36.51-3.92.99,3.93-33.71,14.97.63,2.5-2.08.53-3.08-12.17,2.08-.53.49,1.94,18.66-7.54v.05s-19.94,2.42-19.94,2.42l.44,1.75-2.08.53-1.54-6.08Zm7.68,2.44l1.92-.49,1.4,5.55-1.92.49-1.4-5.55Z"/>
      <path d="m950.94,415.54l2.11-.41.49,2.5,33.58-6.55-.48-2.47,2.11-.41,2.24,11.48-17.94,6.71-.2-1.02,19.35.53,2.06,10.57-2.11.41-.49-2.5-33.58,6.55.5,2.55-2.11.41-2.43-12.48,2.11-.41.52,2.66,32.9-6.42.21,1.08-34.38-1.14-.4-2.04,33.21-12.87.14.73-34.41,6.71.41,2.1-2.1.41-1.3-6.67Z"/>
      <path d="m956.61,445.46l2.13-.28.39,2.99,33.92-4.47-.39-2.99,2.13-.28,1.68,12.71c.12.94.08,1.95-.13,3.03-.21,1.08-.66,2.12-1.34,3.12s-1.66,1.87-2.94,2.6c-1.28.73-2.92,1.23-4.92,1.49-2.05.27-3.9.23-5.54-.13-1.64-.36-3.04-.92-4.2-1.69s-2.08-1.63-2.74-2.58c-.66-.95-1.05-1.89-1.18-2.82l-.33-2.5-13.06,1.72.39,2.99-2.13.28-1.74-13.2Zm18.66,7.93l.1.73c.08.63.57,1.12,1.45,1.45.88.33,2.12.52,3.71.55,1.58.03,3.45-.1,5.59-.38,2.04-.27,3.65-.58,4.86-.94,1.2-.36,2.05-.78,2.54-1.26.49-.48.7-1.03.62-1.64l-.13-.98-18.73,2.47Z"/>
      <path d="m959.65,469.25l2.14-.17.21,2.62,34.1-2.73-.21-2.62,2.14-.17,1.41,17.59-9.57.77-.17-2.13c1.48-.12,2.77-.37,3.87-.76,1.1-.39,1.93-.92,2.49-1.6.56-.68.8-1.53.72-2.54l-.09-1.12-15.98,1.28.34,4.23,2.52-.2.17,2.1-7.07.57-.17-2.1,2.41-.19-.34-4.23-15.98,1.28.09,1.12c.08,1.02.46,1.82,1.14,2.4.68.58,1.6.97,2.76,1.18,1.16.21,2.48.26,3.96.14l.17,2.13-9.65.77-1.41-17.59Z"/>
      <path d="m960.8,498.92c-.04-1.06.05-1.9.27-2.53s.47-1.13.77-1.49c.3-.37.56-.67.79-.9.23-.24.34-.49.33-.77-.02-.53-.57-.78-1.65-.74l-.07-2.05,9.76-.34.07,2.14c-.37.03-.88.14-1.53.34-.65.2-1.36.47-2.12.83s-1.48.79-2.16,1.31c-.68.52-1.23,1.11-1.66,1.78s-.62,1.44-.6,2.3c.03.69.18,1.24.46,1.64.28.4.69.69,1.24.86.55.17,1.23.25,2.06.22,1.06-.04,2.13-.32,3.19-.84,1.06-.52,2.2-1.24,3.39-2.15,1.2-.91,2.52-1.98,3.96-3.22,1.78-1.51,3.43-2.68,4.96-3.52s2.98-1.43,4.37-1.77c1.39-.34,2.79-.54,4.2-.58,2.09-.07,3.85.22,5.27.89,1.43.66,2.52,1.55,3.27,2.66.75,1.11,1.15,2.3,1.2,3.58.04,1.13-.11,2-.43,2.59-.33.6-.66,1.06-1.01,1.41-.35.34-.51.68-.5,1,0,.24.12.42.32.54.21.12.61.18,1.22.18l.07,2.05-9.7.33-.07-2.11c.55-.06,1.26-.22,2.14-.49.88-.27,1.77-.64,2.67-1.12.9-.48,1.65-1.07,2.25-1.76s.88-1.51.85-2.44c-.03-.93-.39-1.63-1.08-2.1-.69-.47-1.63-.68-2.84-.64-.9.03-1.88.31-2.96.83-1.07.52-2.22,1.25-3.43,2.2-1.21.95-2.51,2.05-3.88,3.3-1.42,1.38-2.81,2.5-4.16,3.35s-2.75,1.49-4.2,1.93-2.99.68-4.64.74c-2.04.07-3.72-.11-5.05-.54-1.34-.43-2.39-1.01-3.16-1.75-.77-.74-1.32-1.56-1.65-2.46-.33-.9-.52-1.79-.54-2.67Z"/>
      <path d="m961.89,509.73l2.14.04-.04,2.66,34.21.56.04-2.66,2.14.04-.21,12.74-2.14-.04.04-2.71-34.21-.56-.04,2.71-2.14-.04.21-12.74Z"/>
      <path d="m961.8,524.8l2.14.11-.12,2.54,34.17,1.68.12-2.54,2.14.11-.53,10.76-21.89,5.7.02-.38,19.42.95.12-2.41,2.14.11-.35,7.03-2.14-.11.12-2.44-36.31-1.78.22-4.41,34.72-8.99-.02.47-32.05-1.58-.12,2.46-2.14-.11.35-7.17Z"/>
      <path d="m960.67,547.08l2.13.21-.22,2.21,35.68,8.68-.4,4.04-36.79,2.67-.25,2.56-2.13-.21,1.23-12.49,2.13.21-.2,1.99,20.11-.78v.05s-19.6-4.48-19.6-4.48l-.18,1.8-2.13-.21.61-6.25Zm6.4,4.9l1.97.19-.56,5.7-1.97-.19.56-5.7Z"/>
      <path d="m957.25,578.1l2.11.37-.45,2.57,33.71,5.83.44-2.56,2.11.37-1.93,11.12c-.31,1.8-1.3,3.36-2.98,4.67-1.68,1.31-3.98,2.21-6.91,2.68-2.93.48-6.45.36-10.54-.35-4.14-.72-7.55-1.8-10.25-3.26-2.7-1.46-4.66-3.1-5.88-4.91s-1.68-3.61-1.37-5.4l1.93-11.12Zm.4,10.27l-.14.84c-.1.59.45,1.27,1.64,2.02,1.2.75,3.05,1.52,5.54,2.31,2.5.78,5.62,1.5,9.36,2.15,3.45.6,6.44.94,8.97,1.04,2.53.09,4.5,0,5.91-.28,1.41-.29,2.16-.71,2.26-1.26l.17-.97-33.71-5.83Z"/>
      <path d="m950.04,612.35c.44-1.92,1.59-3.46,3.44-4.62,1.85-1.16,4.3-1.84,7.37-2.04,3.07-.2,6.66.17,10.79,1.12,4.14.95,7.56,2.2,10.25,3.72,2.69,1.53,4.61,3.22,5.78,5.07,1.16,1.85,1.52,3.74,1.08,5.66-.45,1.96-1.61,3.52-3.47,4.7-1.86,1.17-4.33,1.87-7.42,2.09-3.09.22-6.71-.15-10.85-1.11-4.13-.95-7.52-2.2-10.19-3.74-2.66-1.54-4.57-3.25-5.72-5.11-1.15-1.87-1.5-3.78-1.05-5.74Zm2.09.48c-.11.48.16.96.81,1.44.65.48,1.68.98,3.09,1.51,1.41.53,3.18,1.08,5.3,1.66,2.12.57,4.6,1.19,7.42,1.84,2.82.65,5.32,1.18,7.49,1.6,2.17.42,4.01.69,5.52.84,1.51.14,2.67.14,3.48,0s1.28-.45,1.39-.93c.11-.46-.18-.93-.85-1.41s-1.72-.96-3.15-1.47-3.21-1.05-5.34-1.62c-2.13-.58-4.61-1.19-7.44-1.84s-5.31-1.18-7.48-1.6c-2.16-.41-3.99-.7-5.49-.87-1.5-.17-2.64-.18-3.43-.04-.79.14-1.24.44-1.35.9Z"/>
      <path d="m944.94,634.87l2.05.64-.78,2.51,32.67,10.15.78-2.51,2.05.64-5.23,16.85-9.17-2.85.63-2.04c1.42.44,2.71.68,3.88.73,1.17.05,2.13-.14,2.91-.56s1.31-1.12,1.62-2.09l.33-1.07-15.31-4.75-1.26,4.06,2.42.75-.63,2.01-6.78-2.1.63-2.02,2.31.72,1.26-4.06-15.31-4.76-.33,1.07c-.3.98-.25,1.86.17,2.65.42.79,1.12,1.5,2.12,2.12s2.2,1.16,3.62,1.6l-.63,2.04-9.24-2.87,5.23-16.85Z"/>
      <path d="m934.97,662.86c.36-1,.76-1.75,1.19-2.25.44-.5.86-.87,1.28-1.1s.77-.41,1.07-.54c.3-.13.5-.33.59-.59.18-.5-.24-.93-1.25-1.3l.7-1.93,9.18,3.32-.73,2.01c-.35-.11-.87-.19-1.54-.25-.68-.06-1.44-.07-2.27-.02s-1.67.18-2.49.41c-.82.23-1.56.57-2.2,1.04-.65.47-1.12,1.1-1.41,1.91-.24.65-.3,1.22-.19,1.7.11.48.39.9.83,1.26s1.05.69,1.83.97c1,.36,2.09.5,3.27.41,1.18-.09,2.5-.33,3.95-.73,1.45-.4,3.08-.9,4.88-1.51,2.21-.73,4.18-1.21,5.91-1.42,1.72-.21,3.29-.22,4.71-.01,1.42.2,2.79.54,4.12,1.02,1.96.71,3.49,1.64,4.56,2.79s1.76,2.38,2.04,3.68c.29,1.31.21,2.56-.22,3.77-.39,1.06-.84,1.81-1.37,2.24-.53.43-1.01.74-1.46.93-.45.19-.73.44-.84.75-.08.22-.05.43.1.62.14.19.5.39,1.06.62l-.7,1.93-9.13-3.3.72-1.98c.53.15,1.25.27,2.17.35.92.08,1.88.06,2.9-.04,1.01-.11,1.93-.38,2.75-.8s1.38-1.07,1.7-1.95c.32-.88.25-1.66-.21-2.35-.46-.69-1.26-1.24-2.4-1.66-.84-.31-1.86-.42-3.05-.33-1.19.08-2.53.34-4,.76-1.48.43-3.09.97-4.83,1.62-1.83.75-3.54,1.27-5.11,1.56-1.58.28-3.11.36-4.62.22-1.5-.13-3.03-.48-4.58-1.04-1.91-.69-3.41-1.49-4.49-2.38-1.08-.9-1.84-1.83-2.27-2.81-.44-.97-.64-1.94-.62-2.9.03-.96.19-1.86.49-2.68Z"/>
      <path d="m930.85,675.91l1.98.83-1.25,2.98,31.57,13.18.17-.4c.46-1.1.56-2.02.31-2.78s-.84-1.44-1.77-2.04c-.93-.61-2.2-1.24-3.8-1.92l.82-1.97,8.86,3.7-8.04,19.27-8.86-3.7.81-1.95c1.61.67,2.95,1.12,4.04,1.36,1.08.23,1.98.17,2.7-.18.71-.36,1.3-1.08,1.76-2.18l.17-.4-31.57-13.18-1.29,3.08-1.98-.83,5.38-12.87Z"/>
      <path d="m924.93,690.17l1.94.91-.94,2.01,30.73,20.09-1.72,3.67-35.57-9.77-1.09,2.33-1.94-.91,5.33-11.36,1.94.91-.85,1.81,19.22,5.98-.02.05-16.97-10.77-.77,1.64-1.94-.91,2.66-5.68Zm4.4,6.75l1.79.84-2.43,5.19-1.79-.84,2.43-5.19Z"/>
      <path d="m916.37,708.48l1.89,1-1.22,2.3,30.24,16,1.22-2.3,1.9,1-5.28,9.98c-.85,1.61-2.28,2.79-4.29,3.51-2,.73-4.47.86-7.4.41-2.93-.46-6.24-1.66-9.91-3.6-3.71-1.96-6.62-4.06-8.73-6.28-2.11-2.22-3.46-4.39-4.06-6.49-.6-2.1-.47-3.96.37-5.55l5.28-9.98Zm-2.81,9.89l-.4.75c-.28.53.03,1.34.94,2.43.91,1.09,2.43,2.39,4.56,3.91,2.13,1.52,4.87,3.17,8.23,4.94,3.1,1.64,5.83,2.89,8.21,3.77,2.38.88,4.28,1.4,5.71,1.56,1.43.17,2.27,0,2.54-.5l.46-.87-30.24-16Z"/>
      <path d="m898.89,738.81c1.02-1.69,2.58-2.8,4.7-3.33s4.66-.42,7.64.34,6.28,2.23,9.91,4.41c3.64,2.19,6.51,4.43,8.59,6.72,2.08,2.29,3.39,4.49,3.92,6.61.53,2.12.29,4.03-.73,5.72-1.04,1.72-2.62,2.85-4.75,3.39s-4.7.43-7.71-.32c-3-.75-6.33-2.22-9.97-4.41-3.63-2.18-6.47-4.42-8.53-6.71-2.06-2.29-3.34-4.5-3.86-6.64-.52-2.13-.26-4.06.78-5.78Zm1.84,1.11c-.25.42-.15.96.33,1.62.47.66,1.29,1.46,2.47,2.4,1.18.94,2.69,2.01,4.53,3.22,1.84,1.2,4.01,2.55,6.49,4.04,2.48,1.49,4.69,2.77,6.63,3.84,1.94,1.07,3.6,1.9,4.99,2.51s2.5.96,3.31,1.08,1.35-.03,1.61-.46c.24-.41.12-.94-.37-1.6s-1.34-1.45-2.54-2.37c-1.2-.92-2.72-1.99-4.57-3.2-1.85-1.21-4.02-2.56-6.5-4.05s-4.69-2.77-6.61-3.83-3.58-1.91-4.95-2.53c-1.37-.62-2.45-.99-3.25-1.11-.79-.12-1.32.03-1.56.44Z"/>
      <path d="m887.09,758.68l1.75,1.25-1.51,2.12,27.86,19.86,1.51-2.12,1.75,1.25-6.55,9.19c-1.06,1.49-2.63,2.46-4.71,2.92-2.08.46-4.54.26-7.39-.57-2.85-.84-5.96-2.47-9.35-4.88-3.42-2.44-6.03-4.9-7.83-7.38s-2.86-4.81-3.17-6.97c-.31-2.17.05-3.98,1.1-5.46l6.55-9.19Zm-4.09,9.43l-.49.69c-.35.49-.15,1.34.61,2.54.75,1.2,2.09,2.69,4,4.48,1.91,1.79,4.41,3.78,7.5,5.99,2.85,2.03,5.4,3.64,7.64,4.82,2.24,1.18,4.06,1.95,5.45,2.3,1.39.35,2.25.3,2.58-.16l.57-.8-27.86-19.86Z"/>
      <path d="m874.41,776.44l1.69,1.33-1.37,1.74,25.38,26.53-2.51,3.19-32.43-17.57-1.59,2.02-1.69-1.33,7.76-9.86,1.69,1.33-1.24,1.57,17.36,10.18-.03.04-14.09-14.33-1.12,1.42-1.69-1.33,3.88-4.93Zm2.75,7.57l1.56,1.22-3.54,4.5-1.55-1.22,3.54-4.5Z"/>
      <path d="m854.82,800.74l1.58,1.45-1.74,1.9,25.27,23.06,1.74-1.9,1.58,1.45-7.92,8.68c-.78.85-1.65,1.58-2.62,2.17-.97.6-2.01,1-3.11,1.19-1.11.19-2.25.1-3.42-.29s-2.37-1.12-3.57-2.22c-1.18-1.08-2.02-2.18-2.53-3.31-.51-1.13-.77-2.23-.8-3.29-.03-1.06.09-2.02.36-2.88.26-.86.6-1.56,1-2.11-.47.49-1.12.96-1.96,1.41-.83.45-1.8.75-2.91.91s-2.29.03-3.56-.36c-1.27-.39-2.57-1.19-3.89-2.4-1.91-1.74-3.15-3.49-3.73-5.26-.58-1.76-.67-3.42-.29-4.97.38-1.55,1.08-2.88,2.09-3.99l8.42-9.23Zm-5.06,8.73l-.63.69c-.37.4-.47,1.02-.3,1.84.17.82.64,1.79,1.4,2.91s1.85,2.32,3.26,3.61c1.69,1.54,3.09,2.6,4.18,3.17,1.1.57,1.97.81,2.61.73.64-.08,1.13-.3,1.46-.67l.67-.73-12.66-11.55Zm14.24,12.99l-.66.73c-.39.43-.54.98-.44,1.64.1.66.53,1.48,1.27,2.46s1.87,2.15,3.37,3.52c1.34,1.22,2.46,2.05,3.36,2.47.9.43,1.64.59,2.22.5.58-.09,1.03-.31,1.35-.66l.55-.61-11.03-10.06Z"/>
      <path d="m839.26,817.72l1.51,1.52-1.58,1.56,21.94,29.44-2.88,2.86-30.04-21.41-1.83,1.81-1.51-1.52,8.91-8.84,1.51,1.52-1.42,1.41,15.98,12.23-.04.04-12.23-15.95-1.28,1.27-1.51-1.52,4.46-4.42Zm1.8,7.85l1.39,1.41-4.07,4.03-1.39-1.41,4.06-4.03Z"/>
      <path d="m824.95,831.98l1.43,1.6-1.94,1.74,22.84,25.47,1.94-1.74,1.43,1.6-8.67,7.77-1.43-1.6,1.25-1.12-10.34-11.53-3.33,2.98,10.34,11.53,1.2-1.08,1.43,1.6-8.51,7.63-1.43-1.6,1.96-1.76-22.84-25.47-1.96,1.76-1.43-1.6,8.51-7.63,1.43,1.6-1.2,1.08,11.07,12.35,3.33-2.98-11.07-12.35-1.24,1.12-1.43-1.6,8.67-7.77Z"/>
      <path d="m804.67,849.88l1.35,1.66-2.06,1.68,21.59,26.54,2.06-1.68,1.35,1.66-9.88,8.04-1.35-1.66,2.1-1.71-21.59-26.54-2.11,1.71-1.35-1.66,9.89-8.04Z"/>
      <path d="m793.68,858.88l1.29,1.72-1.78,1.33,17.65,32.2-3.25,2.43-26.78-25.37-2.06,1.54-1.29-1.72,10.05-7.52,1.29,1.72-1.6,1.2,14.14,14.32-.04.03-9.9-17.49-1.45,1.08-1.29-1.72,5.02-3.76Zm.7,8.03l1.19,1.58-4.59,3.43-1.19-1.58,4.58-3.43Z"/>
      <path d="m749.89,897.39c-1.2-1.95-1.55-4-1.05-6.15s1.73-3.82,3.67-5.02,3.99-1.54,6.13-1.03c2.14.51,3.82,1.74,5.02,3.69,1.2,1.95,1.55,4,1.05,6.15s-1.73,3.82-3.67,5.02-3.99,1.54-6.13,1.03c-2.14-.51-3.82-1.74-5.02-3.69Z"/>
    </g>
    <g>
      <path d="m376.75,991.9c-5.26,0-9.52-2.9-12.79-8.7-3.27-5.8-4.9-14.03-4.9-24.69,0-4.25.37-8.37,1.12-12.37s1.87-7.6,3.38-10.81c1.51-3.21,3.4-5.76,5.67-7.65,2.27-1.89,4.93-2.84,7.98-2.84,2.15,0,4.04.68,5.69,2.05,1.65,1.36,2.95,3.05,3.9,5.07.95,2.02,1.42,3.98,1.42,5.91s-.38,3.47-1.14,4.74c-.76,1.27-1.98,1.91-3.66,1.91-1.87,0-3.18-.51-3.94-1.54-.76-1.02-1.14-2.37-1.14-4.04,0-1.18.26-2.15.79-2.91.53-.76,1.06-1.5,1.59-2.21.53-.71.79-1.57.79-2.56s-.18-1.68-.54-2.07c-.36-.39-.86-.58-1.52-.58-1.09,0-2.03.66-2.82,1.98s-1.46,3.08-1.98,5.28c-.53,2.2-.95,4.62-1.26,7.25-.31,2.64-.54,5.29-.68,7.95-.14,2.67-.21,5.12-.21,7.35,0,3.35.09,6.53.26,9.53s.42,5.75.75,8.23c.33,2.48.75,4.62,1.26,6.42.51,1.8,1.1,3.19,1.77,4.19.67.99,1.42,1.49,2.26,1.49,1.15,0,2.08-.3,2.8-.91.72-.6,1.3-1.46,1.75-2.58.45-1.12.83-2.4,1.14-3.86l3.03,1.86c-.62,1.8-1.39,3.39-2.31,4.77-.92,1.38-2.06,2.45-3.43,3.21-1.37.76-3.05,1.14-5.04,1.14Z"/>
      <path d="m399.01,990.97v-3.63h4.48v-57.85h-4.48v-3.63h30.06v16.23h-3.64c0-2.51-.26-4.72-.77-6.63-.51-1.91-1.31-3.38-2.38-4.42-1.07-1.04-2.48-1.56-4.22-1.56h-1.91v27.11h7.23v-4.28h3.59v12h-3.59v-4.09h-7.23v27.11h1.91c1.74,0,3.15-.54,4.22-1.6,1.07-1.07,1.87-2.56,2.38-4.49.51-1.92.77-4.14.77-6.65h3.64v16.37h-30.06Z"/>
      <path d="m459.3,991.9c-5.26,0-9.52-2.9-12.79-8.7-3.27-5.8-4.9-14.03-4.9-24.69,0-4.25.37-8.37,1.12-12.37s1.87-7.6,3.38-10.81c1.51-3.21,3.4-5.76,5.67-7.65,2.27-1.89,4.93-2.84,7.98-2.84,2.15,0,4.04.68,5.69,2.05,1.65,1.36,2.95,3.05,3.9,5.07.95,2.02,1.42,3.98,1.42,5.91s-.38,3.47-1.14,4.74c-.76,1.27-1.98,1.91-3.66,1.91-1.87,0-3.18-.51-3.94-1.54-.76-1.02-1.14-2.37-1.14-4.04,0-1.18.26-2.15.79-2.91.53-.76,1.06-1.5,1.59-2.21.53-.71.79-1.57.79-2.56s-.18-1.68-.54-2.07c-.36-.39-.86-.58-1.52-.58-1.09,0-2.03.66-2.82,1.98s-1.46,3.08-1.98,5.28c-.53,2.2-.95,4.62-1.26,7.25-.31,2.64-.54,5.29-.68,7.95-.14,2.67-.21,5.12-.21,7.35,0,3.35.09,6.53.26,9.53s.42,5.75.75,8.23c.33,2.48.75,4.62,1.26,6.42.51,1.8,1.1,3.19,1.77,4.19.67.99,1.42,1.49,2.26,1.49,1.15,0,2.08-.3,2.8-.91.72-.6,1.3-1.46,1.75-2.58.45-1.12.83-2.4,1.14-3.86l3.03,1.86c-.62,1.8-1.39,3.39-2.31,4.77-.92,1.38-2.06,2.45-3.43,3.21-1.37.76-3.05,1.14-5.04,1.14Z"/>
      <path d="m477.46,990.97v-3.63h3.78l8.77-61.47h6.91l10.64,61.47h4.39v3.63h-21.38v-3.63h3.41l-4.67-33.71h.09l-4.34,33.71h3.08v3.63h-10.69Zm7.23-11.58v-3.35h9.75v3.35h-9.75Z"/>
      <path d="m519.14,990.97v-3.63h4.48v-57.85h-4.48v-3.63h28.8v16.23h-3.64c0-2.51-.16-4.72-.49-6.63-.33-1.91-.96-3.38-1.89-4.42-.93-1.04-2.32-1.56-4.15-1.56h-1.49v25.85h7.09v-4.18h3.64v12h-3.64v-4.23h-7.09v28.41h4.48v3.63h-21.61Z"/>
      <path d="m559.51,995.81l22.82-74.77h3.73l-22.78,74.77h-3.78Z"/>
      <path d="m595.16,990.97v-3.63h4.39v-57.85h-4.39v-3.63h20.02c1.96,0,3.87.26,5.74.79,1.87.53,3.55,1.37,5.06,2.53,1.51,1.16,2.7,2.7,3.57,4.6s1.31,4.24,1.31,7-.42,5.01-1.26,6.93c-.84,1.92-1.91,3.5-3.22,4.74-1.31,1.24-2.65,2.19-4.04,2.84-1.38.65-2.65,1.04-3.8,1.16,1.15.03,2.49.31,4.01.84,1.52.53,3.02,1.39,4.48,2.6,1.46,1.21,2.68,2.83,3.64,4.86.96,2.03,1.45,4.57,1.45,7.6,0,4.37-.78,7.92-2.33,10.65-1.56,2.73-3.53,4.74-5.93,6.02-2.4,1.29-4.87,1.93-7.42,1.93h-21.28Zm16.8-36.22h1.68c1,0,1.85-.44,2.57-1.33.71-.88,1.26-2.35,1.63-4.39.37-2.05.56-4.79.56-8.23,0-3.07-.25-5.41-.75-7.02-.5-1.61-1.14-2.73-1.91-3.35-.78-.62-1.57-.93-2.38-.93h-1.4v25.25Zm0,32.6h1.59c.93,0,1.82-.57,2.66-1.72.84-1.15,1.52-2.84,2.05-5.07s.79-4.96.79-8.18c0-3.88-.27-6.82-.82-8.83-.54-2.02-1.24-3.38-2.08-4.09-.84-.71-1.68-1.07-2.52-1.07h-1.68v28.97Z"/>
      <path d="m640.43,990.97v-3.63h3.78l8.77-61.47h6.91l10.64,61.47h4.39v3.63h-21.38v-3.63h3.41l-4.67-33.71h.09l-4.34,33.71h3.08v3.63h-10.69Zm7.23-11.58v-3.35h9.75v3.35h-9.75Z"/>
    </g>
  </g>
  <g id="Camada_6" data-name="Camada 6">
    <path d="m177,375c-1.98-1.05,8.34-26.18,22.32-49.26,15.76-26.02,34.62-46.87,41.4-43.7,1.48.69,3.27,2.93,4.6,4.6,2.03,2.54,4.69,5.88,4.67,9.37-.02,4.44-4.39,7.75-6,9-14.97,11.59-42.18,38.62-56,56-7.08,8.9-10.04,14.51-11,14Z"/>
    <path d="m366,425c3.92-1.01,7.89,3.14,8,3,.6-.73-121.35-99.63-130-122-.4-1.04-1.86-5.29-5-6-4.82-1.09-12.46,6.43-12,13,.18,2.59,1.58,4.45,2,5,16.03,20.78,88.27,78.9,111,105,.88,1.01,11.88,13.67,18,11,3.67-1.6,3.68-7.88,8-9Z"/>
    <path d="m287,568h0c1.41-45.61,2-53,2-53,2.63-32.88,3.97-49.31,12-63,13.88-23.65,36.52-34.09,45-38,5.04-2.33,16.23-7.48,18-5,1.15,1.62-1.84,6.27-3,6-.87-.2-.2-3.08-1-11-.33-3.28-.57-3.99,0-5,.8-1.43,2.45-2.1,10-3,10.03-1.19,10.76-.44,11,0,.81,1.51-1.12,4.94-3,5-2.26.08-3.06-4.78-8-14-4.1-7.65-5.07-7.16-7-12-2.35-5.91-4.51-15.72-1-18,2.23-1.45,6.71.17,7,2,.35,2.25-6.76,5.16-21,11-7.28,2.98-10.18,3.85-14,4-2.49.1-11.69.46-13-3-2.64-6.97,28.96-23.87,43-28,3.11-.92,5.65-1.66,6-1,.55,1.04-4.07,5.9-7,5-2.27-.7-2.97-4.55-4-16-1.31-14.5-1.96-21.76-1-24,4.11-9.61,17.26-12.06,33-15,12.44-2.32,42.88-8,51,5,2.09,3.34.2,3.92,3,17,2.92,13.64,6.26,19.09,4,21-2.81,2.38-12.38-2.36-12-5,.55-3.86,22.67-5.46,42-1,14.92,3.45,27.52,10.36,27,12-.46,1.46-10.72-2.87-28-3-17.24-.13-28.83,4.02-30,1-.57-1.48,1.59-4.13,3-4,2.94.28,3.91,12.89,4,14,.04.48.02.82,0,1-.14,1.55-.86,2.27-1,3-.33,1.67,2.33,3.52,3,4,4.37,3.14,10.1,9.79,9,13-.4,1.18-2.94,2.12-8,4-2.34.87-3.76,1.38-4,1-.28-.44.96-2.12,2-2,.65.08.79.82,2,3,1.51,2.72,2.08,2.98,2,4-.1,1.28-1.08,2.17-2,3-1.66,1.5-3.83,2.27-4,2-.1-.15.38-.78,1-1,1.55-.55,4.02,1.39,4,3,0,.61-.37.74-1,2-.51,1.02-.95,2.2-1,3-.12,2.07,1.21,3.07,2,5,.97,2.35.84,5.33,0,7-1.83,3.66-7.76,2.5-21,6-2.52.67-8.06,2.23-8,4,.04,1.21,2.67,1.41,4,4,.96,1.86.98,4.44,0,5-1.64.94-6.27-3.62-6-4,.38-.54,11.66,5.47,21,15,0,0,3.1,3.17,6,7,16.64,22.03,23,55,23,55,15.94,82.71,27.36,100.19,15,119-3.24,4.93-18,25-18,25-70.44-44.63-80.97-48.99-81-49h0c-18.78-8.49-43.78-17.18-74-21-11.84-1.5-22.91-2.04-33-2Z"/>
  </g>
  <g id="Camada_7" data-name="Camada 7">
    <path d="m678,357c-8.63-10.28-7.91-14.09-14-17-4.39-2.1-8.59-1.73-17-1-8.28.72-15.74,1.37-24,6-3.34,1.87-16.11,9.03-16,18,.03,2.41.97,3.82,0,6-1.77,3.96-6.43,2.83-10,7-2.91,3.4-3.53,8.48-2,12,.95,2.19,3.01,4.39,4,4,1.32-.51,1.15-5.69,0-6-1.52-.41-6.65,7.09-6,15,.49,5.99,4.29,12.28,7,12,1.88-.19,3.43-3.59,3-4-.37-.36-2.99.86-4,3-1.48,3.14,1.46,6.19,0,8-1.05,1.3-2.92.17-5,1-5.5,2.2-6.78,15.8-4,17,1.33.57,4.16-1.47,4-3-.38-3.78-19.27-7.78-25-1-2.2,2.6-1.28,5.39-4,7-3.31,1.96-6.12-1.3-11,0-5.39,1.44-8.98,7.29-8,9,.69,1.2,3.41-.1,6,2,.36.29,1.68,1.36,2,3,.52,2.63-2.06,3.97-3,7-1.53,4.93,2.25,11.2,4,11,1.62-.19,2-6,2-6,0,0,.55,22.01-14,39-3.55,4.15-3.61,2.86-7,7-7.67,9.35-10.98,20.29-15,34-2.15,7.34-2.67,10.55-6,14-3.96,4.1-7.59,4.09-9,8-1.6,4.45,1.35,9.3,3,12,1.99,3.27,4.6,7.56,9,8,6.1.62,12.33-6.48,12-12-.19-3.13-2.37-3.8-3-7-.81-4.09,1.75-8.06,8-15,12.18-13.53,16.44-14,22-23,3.7-5.99,2.08-6.21,6-12,6.09-9,11.24-10.28,13-17,1.74-6.64-1.26-13.08-2-13-1.46.17,7.47,25.52-2,48-1.36,3.24-5.46,11.99-3,14,.87.71,2.73.71,4,0,1.53-.86,2.26-2.81,2-3-.54-.4-7.75,5.18-10,13-2.04,7.1,0,16,0,16,0,0,24.76-17.1,46-29,9.18-5.14,26.97-15,51-23,31.2-10.38,65-15,65-15-28.28-41.28-24-46-24-46,1.64-1.81,4.04.44,10-2,1.68-.69,8.95-3.66,11-10,1.03-3.19.13-5.37,2-7,1.78-1.55,3.95-.76,6-1,6.72-.77,8.22-12.14,16-24,5.66-8.62,7.56-6.72,15-17,0,0,6.48-8.96,11-20,6.74-16.46,2-65,2-65-4.04-39.95-7.98-40.52-5-54,.91-4.12,3.26-13,1-24-1.9-9.24-6.81-18.85-12-19-2.21-.06-3.64,1.67-7,1-2.86-.57-3.55-2.17-6-2-2.38.17-2.47,1.73-5,2-2.87.3-3.7-1.61-6-1-2.08.55-1.89,2.24-4,3-2.59.93-3.96-1.24-7-1-3.07.24-6.59,3.02-7,6-.6,4.39,5.9,6.86,5,11-.5,2.31-2.62,2.01-4,5-1.6,3.48-.22,7.24,1,11,.84,2.58,2.01,6.18,5,9,4.73,4.46,9.61,3.3,13,5,13.3,6.66-.85,56.84,3,108,1.08,14.33,2.53,14.95,3,15,3.62.38,11.26-26.86,7-29-1.57-.79-3.94,2.23-17,16-12.26,12.93-5.66,7.31-23,24-5.41,5.21-20.64,19.87-19,22,1.32,1.71,13.6-4.45,13-7-.19-.8-1.56-.9-6-2-6.07-1.5-9.1-2.26-10-3-1.4-1.16-3.48-4.15,1-27,1.97-10.08,2.67-10.98,2-14-1.42-6.45-5.6-6.99-14-17Z"/>
  </g>
  <g id="Camada_8" data-name="Camada 8">
    <path d="m529,384c-1.43-2.69-5.51-3.23-8-3-.36.03-6.15.65-8,5-.95,2.24-.4,4.4,0,6,1.49,5.91,5.77,7.57,5,10-.62,1.95-3.44,1.08-7,4-3.38,2.77-4.6,6.7-5,8-1.06,3.42-.38,4.86-2,10-.33,1.04-.43,1.22-1,3-.6,1.88-1.37,4.29-2,7-1.33,5.71-.61,6.55-2,8-1.29,1.34-2.96,1.71-3,3-.01.38.13.54,1,2,1.55,2.59,1.56,2.87,2,3,1.63.5,3.84-1.31,4-3,.11-1.21-.91-1.55-1-3-.09-1.38.78-2.18,2-4,1.95-2.9,3.16-5.9,3-6-.16-.1-2.36,1.98-3,5-.4,1.89.15,2.58,1,7,.72,3.7.89,6.59,1,9,.26,5.78-.51,8.9,0,9,.45.09,1.66-2.26,1-3-.48-.54-1.82-.07-2,0-1.72.63-2.56,2.26-3,3-2.91,4.88-9.34,6.28-9,7,.11.24.91.22,1,0,.09-.21-.43-.76-1-1-.52-.22-1.19-.22-4,1-1.24.54-1.86.81-2,1-1.12,1.48.57,4.47,2,7,1.48,2.63,2.65,4.55,5,6,1.54.95,4.07,1.93,5,1,.76-.76.17-2.51,0-3-.72-2.12-2.01-2.19-3-4-1.54-2.8-.12-5.69-1-6-.73-.26-2.3,1.48-2,2,.52.9,6.91-1.23,12-4,3.18-1.73,5.45-3.55,6-3,.35.35-.45,1.23-1,3-1.18,3.79.77,5.32,0,10-.4,2.44-1.24,3.89-1,4,.22.1,1.25-1,1-2-.12-.47-.54-1.01-1-1-.19,0-.52.1-2,3-.41.8-1,2-1,2h0s1.39,1.74,3,3c.82.64,2.13,1.67,4,2,.93.17.84-.04,3,0,2.73.06,3.1.4,4,0,1.34-.59,2.36-2.15,2-3-.15-.36-.51-.49-2-1-2.57-.87-2.63-.85-3-1-2.63-1.04-3.1-3.23-4-3-1.32.33-1.35,4.94-1,5,.59.09-.24-12.89,8-21,2.66-2.62,4.18-2.67,5-5,2.3-6.52-6.18-15.89-6-16,.05-.03.52,1.05,1,1,1.2-.12-.14-7.11,2-16,.61-2.52,1.5-5.22,1-9-.21-1.61-.76-4.03-1-4-.5.07-1.43,10.5,3,13,1.83,1.04,4.39.61,8,0,3.19-.54,3.75-1.25,6-1,1.68.19,2.97.76,4,0,.8-.59.94-1.61,1-2,.28-1.93-1-4.01-2-4-.65,0-.89.88-2,1-.57.06-.72-.14-1,0-.99.5-.66,3.9,0,4,.44.07,1.35-1.32,1-2-.56-1.07-3.59.83-8,0-2.74-.51-4.18-1.73-5-1-.87.78-.17,3.01,0,3,.19-.01-.31-2.99,0-9,.27-5.16.79-6.01,0-8-.91-2.28-2.07-2.22-3-5-.75-2.24-1.12-5.41,0-6,.22-.11.37-.07,1,0,2.16.24,3.24.36,4,0,1.29-.6,2.08-2.52,2-4-.04-.84-.38-1.75,0-2,.24-.16.51.12,1,0,.48-.12.96-.57,1-1,.07-.73-1.18-.93-2-2-1.32-1.72.12-3.57-1-5-1.12-1.43-3.91-1.32-4-1-.13.48,5.35,3.48,10,2,1.6-.51,3.13-1.56,3-2-.14-.46-2.06.03-5,0-4.96-.06-7.75-1.57-8-1-.24.54,2.03,2.52,3,2,.8-.42.77-2.55,0-4Z"/>
    <path d="m810,389c-1.06-6.84-5.85-11.69-11-12-4.32-.26-9.34,2.64-10,6-.2,1.01.21.92,1,6,.5,3.25.41,3.81,1,5,1.29,2.62,3.1,2.78,3,4-.16,1.85-4.31,1.64-7,5-.8,1-.35.91-2,5-1.75,4.33-3.54,7.63-5,10-.55.89-1.12,1.82-2,3-1.53,2.06-2.67,3.12-4.21,4.73-3.51,3.66-5.26,5.49-5.79,7.27-.96,3.25.08,6.89,1,7,.79.1,1.77-2.41,2-3,.5-1.28,1.29-5.34,1-4h0c1.13-1.14,2.86-2.88,5-5,6.38-6.31,6.88-6.56,8-8,4.99-6.41,4.83-14.03,5-14,.19.04-1.81,9.73-3,20-.93,8-1.62,14.02-1,22,.63,8.05,1.1,14,4,21,.74,1.79,1.83,5.86,4,14,.5,1.86,1.05,4.05,0,6-.69,1.29-1.69,1.72-3,4-.81,1.41-1.35,2.35-1,3,.63,1.17,3.83.83,6,0,.44-.17,4.69-1.87,6-6,.92-2.89-.09-5.44-1-8-1.55-4.38-5.01-14.15-5-23,0-6.08,1.64-11.04,2-11,.37.04-.94,5.21,0,12,1.48,10.65,6.5,10.8,7,20,.24,4.42-.68,8.82,2,11,.28.23,1.54,1.25,3,1,1.91-.33,2.85-2.63,3-3,1.18-2.88-.7-4.71-2-10-1.88-7.61.47-10.04-2-14-.44-.7-1.64-2.43-2-5-.2-1.45-.05-2.56,0-3,.44-3.59.66-10.78,1-22,.11-3.74.11-6.35,2-8,1.51-1.31,2.74-.73,4-2,2.95-2.98.79-10.91-.6-10.96-.91-.03-2.15,3.29-1.4,3.96.73.65,3.86-.74,5-3,2.28-4.53-3.44-12.48-5-12-.82.25-1.12,3,0,4,1.1.98,3.58.25,5-1,2.28-2.01,2.66-6.08,1-9-2.13-3.75-6.68-3.99-7-4"/>
  </g>
  <g id="Camada_4" data-name="Camada 4">
    <path class="cls-1" d="m735,556c-52.29,4.94-128.39,12.08-176,71-66.65,82.48-24.93,201.32-21,212-8.19,19.68-10,31-10,31-2.97,18.58,2.16,36.08,4,36,.65-.03,1.05-3.16,1.49-6.49,4.01-37.99,42.43-96.41,46.51-102.51,24.93-37.3,48.06-71.3,90-104,18.06-14.08,39.9-28.15,40-28,.16.22-6.95,5.33-13,10,0,0-.92.71-1.96,1.53-55.2,43.2-99.04,109.47-99.04,109.47-13.37,22.3-24.09,41.44-32,56-2.67,4.91-6.31,11.68-9.94,19.07,6.82,10.7,44.95,17.87,70.94,19.93,19.85,1.58,81.53,6.49,128-34,16.48-14.36,24.21-28.47,36-50,38.4-70.12,16.39-94.86,52-146,0,0,23.4-33.61,71-64,5.21-3.33,10-5,10-5,2.39-.83,2.97-.8,3-1,.36-2.57-91.45-34.3-190-25Z"/>
    <g>
      <polygon class="cls-3" points="168 710 168 710 168 710 168 710"/>
      <path class="cls-4" d="m496,851c-.21-4.22-.64-8.74-1.38-13.52-1.87-12.03-5.19-22.27-8.62-30.48-1.17-21.72-7.35-78.57-51-126-49.93-54.26-133.81-79.97-193-55-28.62,12.07-52.12,36.27-60,49-10.62,17.16-13.99,34.97-13.99,34.97,0,0,0,.03,0,.03,0-.02,12.05-3.22,17-4,12.89-2.03,24.43,5,31,9,38.53,23.47,104.21,120.6,171,131,34.4,5.36,70.02-12.15,84.86-23.24-5.89-10.6-12.42-19.54-19.86-29.76-3.25-4.46-15.13-20.6-27.69-34.32-8.37-9.14-34.93-38.55-75.31-57.68-40.01-18.96-76.31-20.24-76-22,.28-1.59,23.45-.54,47,5,9.68,2.28,57.01,14.22,102,56,17.1,15.88,47.97,49.78,63,100,5.3,17.72,7.38,33.33,7.95,40.99.02,0,.03.01.05.01,1.64,0,3.76-14.85,3-30Z"/>
    </g>
  </g>
</svg>